<svg width="500" height="500" viewBox="0 0 500 500" fill="none" xmlns="http://www.w3.org/2000/svg">
<path d="M54.9993 301.933L63.6543 296.332C63.6543 296.332 67.8483 274.018 64.7333 254.287C60.3543 226.546 41.4663 216.978 34.6063 219.735C27.7463 222.492 26.1343 230.71 38.5233 246.739C45.8323 256.196 55.2333 276.188 54.9993 301.933Z" fill="#125505"/>
<g opacity="0.3">
<path d="M54.9993 301.933L63.6543 296.332C63.6543 296.332 67.8483 274.018 64.7333 254.287C60.3543 226.546 41.4663 216.978 34.6063 219.735C27.7463 222.492 26.1343 230.71 38.5233 246.739C45.8323 256.196 55.2333 276.188 54.9993 301.933Z" fill="white"/>
</g>
<path d="M58.1465 290.915C58.1175 290.915 58.0895 290.912 58.0605 290.909C57.7215 290.862 57.4845 290.55 57.5325 290.211C61.1215 264.24 50.6775 235.786 38.9425 224.318C38.6985 224.08 38.6935 223.687 38.9325 223.443C39.1715 223.201 39.5635 223.194 39.8075 223.433C51.7565 235.109 62.4005 264.027 58.7575 290.38C58.7165 290.69 58.4505 290.915 58.1465 290.915Z" fill="white"/>
<path d="M33.2161 316.017C31.9191 316.762 28.2241 313.909 27.2001 313.222C25.4461 312.045 24.0261 310.379 23.0821 308.495C21.9841 306.302 21.7071 303.952 22.0511 301.525C22.2301 300.267 22.5821 299.041 22.9331 297.819C23.2781 296.62 23.6221 295.421 23.9671 294.222C24.3071 293.039 24.6511 291.815 24.4941 290.594C24.1791 288.134 21.9951 286.41 20.0101 284.923C17.8151 283.279 15.5281 281.109 15.5411 278.147C15.5501 275.862 16.7341 273.739 18.1501 271.946C19.5661 270.152 21.2471 268.568 22.5271 266.675C23.4481 265.312 24.1671 263.711 24.0181 262.073C23.9251 261.055 23.5031 260.096 23.0161 259.198C21.9701 257.269 20.5901 255.503 19.8691 253.431C19.1481 251.359 19.2501 248.782 20.8671 247.3C22.1941 246.083 24.1671 245.913 25.9631 246.032C27.6251 246.142 29.2491 246.892 30.7031 247.701C35.4051 250.316 38.0891 255.885 43.0791 257.897C45.0041 258.673 47.1121 258.843 49.1191 259.373C51.1251 259.903 53.1711 260.928 54.1001 262.783C55.9321 266.441 52.5331 270.95 53.8201 274.834C54.9591 278.27 58.2991 279.586 60.1741 282.683C60.9941 284.038 61.1831 285.604 61.0511 287.182C60.8271 289.853 60.4361 291.814 59.1541 294.784C58.0941 297.239 55.0001 301.934 55.0001 301.934C55.0001 301.934 33.4151 315.903 33.2161 316.017Z" fill="#125505"/>
<g opacity="0.65">
<path d="M33.2161 316.017C31.9191 316.762 28.2241 313.909 27.2001 313.222C25.4461 312.045 24.0261 310.379 23.0821 308.495C21.9841 306.302 21.7071 303.952 22.0511 301.525C22.2301 300.267 22.5821 299.041 22.9331 297.819C23.2781 296.62 23.6221 295.421 23.9671 294.222C24.3071 293.039 24.6511 291.815 24.4941 290.594C24.1791 288.134 21.9951 286.41 20.0101 284.923C17.8151 283.279 15.5281 281.109 15.5411 278.147C15.5501 275.862 16.7341 273.739 18.1501 271.946C19.5661 270.152 21.2471 268.568 22.5271 266.675C23.4481 265.312 24.1671 263.711 24.0181 262.073C23.9251 261.055 23.5031 260.096 23.0161 259.198C21.9701 257.269 20.5901 255.503 19.8691 253.431C19.1481 251.359 19.2501 248.782 20.8671 247.3C22.1941 246.083 24.1671 245.913 25.9631 246.032C27.6251 246.142 29.2491 246.892 30.7031 247.701C35.4051 250.316 38.0891 255.885 43.0791 257.897C45.0041 258.673 47.1121 258.843 49.1191 259.373C51.1251 259.903 53.1711 260.928 54.1001 262.783C55.9321 266.441 52.5331 270.95 53.8201 274.834C54.9591 278.27 58.2991 279.586 60.1741 282.683C60.9941 284.038 61.1831 285.604 61.0511 287.182C60.8271 289.853 60.4361 291.814 59.1541 294.784C58.0941 297.239 55.0001 301.934 55.0001 301.934C55.0001 301.934 33.4151 315.903 33.2161 316.017Z" fill="white"/>
</g>
<path d="M45.7812 308.641C45.7732 308.641 45.7652 308.641 45.7652 308.641C45.4332 308.627 45.1832 308.354 45.1952 308.031C46.1632 284.785 35.2102 259.122 27.2452 251.666C27.0092 251.445 26.9972 251.075 27.2182 250.838C27.4402 250.602 27.8092 250.591 28.0462 250.811C36.1712 258.417 47.3462 284.506 46.3662 308.079C46.3532 308.395 46.0932 308.641 45.7812 308.641Z" fill="white"/>
<path d="M42.0439 280.228C41.9869 280.228 41.9279 280.22 41.8709 280.202C34.4029 277.893 25.0939 277.486 25.0019 277.483C24.6779 277.469 24.4279 277.196 24.4409 276.873C24.4549 276.551 24.6989 276.296 25.0499 276.312C25.1449 276.316 34.6009 276.729 42.2169 279.084C42.5259 279.179 42.6989 279.507 42.6029 279.816C42.5249 280.067 42.2939 280.228 42.0439 280.228Z" fill="white"/>
<path d="M253.68 485.02C381.255 485.02 484.675 425.311 484.675 351.657C484.675 278.003 381.255 218.294 253.68 218.294C126.105 218.294 22.6851 278.003 22.6851 351.657C22.6851 425.311 126.105 485.02 253.68 485.02Z" fill="#FAFAFA"/>
<path d="M130.924 294.811C179.848 266.565 259.168 266.565 308.091 294.811C349.561 318.754 355.862 355.304 327.026 383.089L434.676 444.454C441.238 448.242 441.238 454.384 434.676 458.172L425.002 463.757C418.441 467.545 407.983 467.253 401.643 463.104L307.612 397.36C258.653 425.335 179.692 425.253 130.924 397.098C82.0018 368.852 82.0008 323.057 130.924 294.811Z" fill="#E6E6E6"/>
<path d="M150.755 46.5L142.267 51.401C142.309 51.022 142.338 50.646 142.338 50.277V47.818C142.338 43.442 139.266 41.668 135.476 43.856C133.941 44.742 132.529 46.146 131.386 47.789C130.765 42.287 126.448 40.237 121.204 43.264C115.534 46.537 110.938 54.499 110.938 61.046V64.725C110.938 66.421 111.252 67.849 111.807 68.987L104.756 73.058C102.654 74.272 100.949 77.223 100.949 79.651C100.949 82.079 102.653 83.062 104.756 81.849L150.755 55.292C152.857 54.078 154.561 51.126 154.561 48.699C154.561 46.271 152.857 45.287 150.755 46.5Z" fill="#EBEBEB"/>
<path d="M38.898 68.556L43.683 64.871V54.331C43.683 45.975 50.348 36.275 57.585 32.097C64.822 27.919 70.688 31.306 70.688 39.662V41.193C72.33 38.642 74.45 36.448 76.769 35.109C81.977 32.103 86.198 34.54 86.198 40.553V41.249L92.87 37.398C96.3 35.418 99.08 37.023 99.08 40.983C99.08 44.943 96.3 49.758 92.87 51.738L38.898 82.898C35.469 84.878 32.689 83.273 32.689 79.313C32.689 75.353 35.468 70.537 38.898 68.556Z" fill="#EBEBEB"/>
<path d="M109.834 313.191V343.622C109.834 360.142 120.75 376.662 142.581 389.266C186.244 414.475 257.036 414.475 300.7 389.266C322.532 376.662 333.448 360.142 333.448 343.622V313.191C333.448 296.671 322.532 280.151 300.7 267.547C257.036 242.338 186.244 242.338 142.581 267.547C120.749 280.151 109.835 296.672 109.834 313.191ZM322.634 313.193C322.634 326.409 312.924 339.293 295.294 349.473C275.793 360.731 249.635 366.932 221.641 366.932C193.644 366.932 167.486 360.731 147.988 349.473C130.358 339.294 120.648 326.409 120.648 313.193C120.648 299.976 130.356 287.09 147.988 276.911C167.487 265.653 193.645 259.452 221.641 259.452C249.638 259.452 275.796 265.653 295.294 276.911C312.926 287.09 322.634 299.975 322.634 313.193Z" fill="#125505"/>
<path opacity="0.2" d="M109.834 313.191V343.622C109.834 360.142 120.75 376.662 142.581 389.266C186.244 414.475 257.036 414.475 300.7 389.266C322.532 376.662 333.448 360.142 333.448 343.622V313.191C333.448 296.671 322.532 280.151 300.7 267.547C257.036 242.338 186.244 242.338 142.581 267.547C120.749 280.151 109.835 296.672 109.834 313.191ZM322.634 313.193C322.634 326.409 312.924 339.293 295.294 349.473C275.793 360.731 249.635 366.932 221.641 366.932C193.644 366.932 167.486 360.731 147.988 349.473C130.358 339.294 120.648 326.409 120.648 313.193C120.648 299.976 130.356 287.09 147.988 276.911C167.487 265.653 193.645 259.452 221.641 259.452C249.638 259.452 275.796 265.653 295.294 276.911C312.926 287.09 322.634 299.975 322.634 313.193Z" fill="white"/>
<path opacity="0.6" d="M333.336 346.464C331.596 356.926 326.987 364.809 308.422 379.303C282.167 399.802 215.698 408.173 177.117 395.436C140.734 383.424 129.134 359.953 129.134 343.841L129.228 334.375C123.612 327.681 120.647 320.488 120.647 313.193C120.647 305.714 123.758 298.342 129.651 291.506L129.783 278.175H127.697C115.794 288.797 109.835 300.994 109.834 313.192V343.622C109.834 360.142 120.75 376.662 142.581 389.266C186.245 414.475 257.036 414.475 300.7 389.266C321.28 377.385 332.155 362.024 333.336 346.464Z" fill="#125505"/>
<path d="M300.707 267.547C257.044 242.338 186.252 242.338 142.588 267.547C98.9238 292.756 98.9248 333.629 142.589 358.837C186.254 384.046 257.045 384.046 300.709 358.837C344.37 333.629 344.37 292.756 300.707 267.547ZM295.301 349.473C275.802 360.731 249.644 366.932 221.647 366.932C193.652 366.932 167.495 360.731 147.994 349.473C130.364 339.294 120.654 326.409 120.654 313.193C120.654 299.976 130.362 287.09 147.994 276.911C167.493 265.653 193.65 259.452 221.647 259.452C249.644 259.452 275.802 265.653 295.301 276.911C312.933 287.09 322.641 299.975 322.641 313.193C322.641 326.409 312.931 339.293 295.301 349.473Z" fill="#125505"/>
<path opacity="0.5" d="M300.707 267.547C257.044 242.338 186.252 242.338 142.588 267.547C98.9238 292.756 98.9248 333.629 142.589 358.837C186.254 384.046 257.045 384.046 300.709 358.837C344.37 333.629 344.37 292.756 300.707 267.547ZM295.301 349.473C275.802 360.731 249.644 366.932 221.647 366.932C193.652 366.932 167.495 360.731 147.994 349.473C130.364 339.294 120.654 326.409 120.654 313.193C120.654 299.976 130.362 287.09 147.994 276.911C167.493 265.653 193.65 259.452 221.647 259.452C249.644 259.452 275.802 265.653 295.301 276.911C312.933 287.09 322.641 299.975 322.641 313.193C322.641 326.409 312.931 339.293 295.301 349.473Z" fill="white"/>
<path d="M322.65 313.19C322.65 318.38 321.158 323.484 318.282 328.414C313.849 320.737 306.043 313.536 295.294 307.351C275.81 296.084 249.642 289.878 221.638 289.878C193.655 289.878 167.488 296.084 148.003 307.351C137.255 313.536 129.449 320.737 124.994 328.414C122.139 323.484 120.647 318.38 120.647 313.19C120.647 299.977 130.357 287.088 148.003 276.902C167.487 265.657 193.655 259.45 221.638 259.45C249.643 259.45 275.81 265.657 295.294 276.902C312.939 287.088 322.65 299.977 322.65 313.19Z" fill="#125505"/>
<path opacity="0.3" d="M322.65 313.19C322.65 318.38 321.158 323.484 318.282 328.414C313.849 320.737 306.043 313.536 295.294 307.351C275.81 296.084 249.642 289.878 221.638 289.878C193.655 289.878 167.488 296.084 148.003 307.351C137.255 313.536 129.449 320.737 124.994 328.414C122.139 323.484 120.647 318.38 120.647 313.19C120.647 299.977 130.357 287.088 148.003 276.902C167.487 265.657 193.655 259.45 221.638 259.45C249.643 259.45 275.81 265.657 295.294 276.902C312.939 287.088 322.65 299.977 322.65 313.19Z" fill="white"/>
<path opacity="0.6" d="M148.002 276.902C130.356 287.087 120.646 299.976 120.646 313.19C120.646 318.38 122.138 323.484 124.993 328.414C129.448 320.737 137.254 313.536 148.002 307.351C152.385 304.817 157.121 302.554 162.125 300.544C157.86 302.191 144.785 306.4 149.553 293.932C155.219 279.116 182.885 263.082 203.218 260.416L203.231 260.382C182.313 262.489 163.137 268.167 148.002 276.902Z" fill="#125505"/>
<path opacity="0.4" d="M295.301 290.689C275.802 279.431 249.644 273.23 221.647 273.23C193.65 273.23 167.493 279.43 147.994 290.689C133.445 299.088 124.309 309.331 121.553 320.081C124.309 330.831 133.447 341.073 147.994 349.472C167.495 360.73 193.652 366.931 221.647 366.931C249.644 366.931 275.802 360.73 295.301 349.472C309.848 341.073 318.985 330.83 321.743 320.081C318.986 309.331 309.85 299.088 295.301 290.689Z" fill="white"/>
<path d="M140.52 327.06C146.769 331.958 153.86 335.04 161.09 337.519C168.337 339.969 175.787 341.706 183.298 342.998C198.342 345.523 213.634 346.235 228.862 345.596C236.472 345.265 244.094 344.552 251.664 343.525C259.215 342.448 266.727 341.1 274.05 339.119C281.37 337.163 288.564 334.672 295.179 331.095C296.836 330.209 298.438 329.227 299.977 328.161C301.532 327.109 302.992 325.932 304.369 324.658C305.743 323.379 306.998 321.963 308.059 320.386C309.153 318.824 309.982 317.068 310.549 315.163C310.609 317.153 310.201 319.18 309.528 321.119C308.825 323.051 307.824 324.875 306.676 326.597C305.536 328.331 304.192 329.922 302.75 331.399C301.323 332.902 299.761 334.254 298.157 335.545C291.686 340.673 284.293 344.374 276.727 347.312C269.132 350.224 261.283 352.307 253.362 353.823C245.443 355.33 237.434 356.26 229.367 356.667C213.254 357.417 196.963 355.888 181.363 351.559C173.584 349.348 165.96 346.461 158.855 342.545C155.316 340.572 151.89 338.374 148.755 335.81C147.963 335.184 147.219 334.488 146.456 333.835C145.726 333.131 144.976 332.465 144.287 331.728C142.905 330.262 141.625 328.707 140.52 327.06Z" fill="white"/>
<path d="M297.377 378.209C297.357 373.213 300.839 367.124 305.155 364.609C307.302 363.357 309.249 363.23 310.669 364.029L310.67 364.025L310.69 364.036L310.694 364.038L335.606 378.285C335.615 378.29 335.623 378.295 335.632 378.3L335.64 378.305L335.639 378.306C337.048 379.124 337.926 380.867 337.936 383.353C337.956 388.349 334.474 394.438 330.157 396.954C327.998 398.212 326.04 398.338 324.619 397.525L299.712 383.283L299.715 383.28C298.282 382.471 297.387 380.718 297.377 378.209Z" fill="#37474F"/>
<path d="M299.715 383.279C298.282 382.471 297.388 380.718 297.378 378.209C297.37 376.326 297.862 374.289 298.706 372.345L334.516 392.869C333.273 394.568 331.774 396.011 330.158 396.953C327.999 398.211 326.041 398.337 324.62 397.524L299.713 383.282L299.715 383.279Z" fill="#263238"/>
<path d="M420.44 418.811L420.432 418.806C420.421 418.8 420.411 418.795 420.4 418.789L341.139 378.404C341.137 378.403 341.134 378.401 341.132 378.4L341.027 378.344L341.019 378.358C339.179 377.367 336.684 377.538 333.931 379.144C328.314 382.418 323.781 390.343 323.808 396.845C323.822 400.104 324.979 402.385 326.837 403.441L401.369 451.424C404.279 453.255 407.723 454.313 411.416 454.313C421.852 454.313 430.312 445.853 430.312 435.417C430.31 428.249 426.319 422.014 420.44 418.811Z" fill="#455A64"/>
<path d="M326.835 403.44L401.367 451.423C404.277 453.254 407.721 454.312 411.413 454.312C421.439 454.312 429.618 446.498 430.248 436.632C428.82 442.837 418.56 448.117 405.836 441.006C393.041 433.856 346.003 404.127 324.587 391.796C324.078 393.504 323.8 395.219 323.807 396.844C323.82 400.103 324.978 402.385 326.835 403.44Z" fill="#37474F"/>
<path d="M326.835 403.44C324.977 402.385 323.82 400.103 323.806 396.844C323.779 390.342 328.312 382.417 333.929 379.143C336.683 377.538 339.178 377.366 341.017 378.357L348.04 381.918C346.153 380.901 343.595 381.077 340.77 382.724C335.009 386.082 330.36 394.209 330.388 400.877C330.402 404.219 331.537 406.611 333.442 407.693" fill="#125505"/>
<path opacity="0.2" d="M333.442 407.693C331.538 406.611 330.403 404.219 330.389 400.878C330.382 399.201 330.672 397.431 331.2 395.668C328.805 394.248 326.584 392.946 324.587 391.795C324.333 392.649 324.136 393.505 324.003 394.35C323.937 394.773 323.887 395.193 323.854 395.609C323.821 396.025 323.805 396.437 323.806 396.843C323.82 400.102 324.977 402.383 326.835 403.439L333.442 407.693Z" fill="black"/>
<path d="M137.206 449.76L77.213 419.754L53.313 430.326L137.206 449.76Z" fill="#125505"/>
<g opacity="0.15">
<path d="M137.206 449.76L77.213 419.754L53.313 430.326L137.206 449.76Z" fill="white"/>
</g>
<path d="M137.206 449.76L84.355 414.43L93.821 400.826L137.206 449.76Z" fill="#125505"/>
<g opacity="0.15">
<path d="M137.206 449.76L84.355 414.43L93.821 400.826L137.206 449.76Z" fill="white"/>
</g>
<path d="M84.355 414.43L85.354 423.826L137.206 449.76L84.355 414.43Z" fill="#125505"/>
<g opacity="0.2">
<path d="M84.355 414.43L85.354 423.826L137.206 449.76L84.355 414.43Z" fill="black"/>
</g>
<path d="M75.8041 412.626C75.9421 412.626 76.0811 412.573 76.1941 412.465C76.4411 412.226 76.4691 411.81 76.2531 411.535C75.8631 411.038 75.4791 410.54 75.0971 410.04C74.8851 409.759 74.5111 409.726 74.2601 409.962C74.0091 410.196 73.9771 410.612 74.1891 410.89C74.5731 411.396 74.9621 411.899 75.3541 412.401C75.4721 412.551 75.6371 412.626 75.8041 412.626Z" fill="#455A64"/>
<path d="M70.5329 405.81C69.8229 404.767 69.1329 403.717 68.4619 402.657C68.2739 402.359 68.3389 401.948 68.6069 401.738C68.8729 401.529 69.2449 401.603 69.4359 401.898C70.0979 402.945 70.7809 403.985 71.4819 405.015C71.6799 405.306 71.6279 405.719 71.3659 405.938C71.2589 406.028 71.1329 406.071 71.0079 406.071C70.8269 406.072 70.6489 405.982 70.5329 405.81ZM65.2409 397.22C64.6249 396.105 64.0319 394.981 63.4629 393.85C63.3019 393.533 63.4049 393.131 63.6919 392.954C63.9769 392.774 64.3409 392.89 64.4999 393.208C65.0619 394.324 65.6469 395.433 66.2549 396.531C66.4259 396.842 66.3379 397.248 66.0589 397.439C65.9609 397.505 65.8539 397.535 65.7479 397.535C65.5479 397.535 65.3529 397.424 65.2409 397.22ZM60.7809 388.059C60.2809 386.874 59.8019 385.672 59.3569 384.484C59.2319 384.148 59.3749 383.762 59.6779 383.622C59.9819 383.483 60.3289 383.642 60.4549 383.979C60.8919 385.15 61.3629 386.334 61.8559 387.501C61.9949 387.831 61.8669 388.223 61.5699 388.377C61.4889 388.42 61.4019 388.44 61.3179 388.44C61.0949 388.439 60.8809 388.298 60.7809 388.059ZM57.3229 378.375C56.9569 377.125 56.6189 375.864 56.3189 374.627C56.2329 374.276 56.4199 373.913 56.7369 373.819C57.0539 373.72 57.3809 373.933 57.4649 374.283C57.7609 375.499 58.0929 376.739 58.4529 377.968C58.5539 378.314 58.3839 378.686 58.0709 378.799C58.0109 378.821 57.9479 378.832 57.8879 378.832C57.6369 378.832 57.4049 378.654 57.3229 378.375ZM55.0249 368.272C54.8169 366.999 54.6349 365.698 54.4869 364.408C54.4449 364.046 54.6749 363.716 55.0009 363.671C55.3169 363.627 55.6249 363.881 55.6649 364.241C55.8109 365.509 55.9889 366.787 56.1939 368.037C56.2519 368.395 56.0379 368.739 55.7149 368.803C55.6799 368.811 55.6429 368.814 55.6079 368.814C55.3269 368.815 55.0769 368.591 55.0249 368.272ZM53.9969 357.914C53.9609 356.895 53.9419 355.871 53.9409 354.845L53.9459 354.003C53.9509 353.641 54.2149 353.353 54.5399 353.353C54.5419 353.353 54.5459 353.353 54.5479 353.353C54.8759 353.358 55.1379 353.656 55.1339 354.021L55.1299 354.844C55.1309 355.854 55.1489 356.86 55.1859 357.861C55.1999 358.225 54.9439 358.531 54.6159 358.546C54.6079 358.546 54.5999 358.546 54.5919 358.546C54.2729 358.546 54.0089 358.268 53.9969 357.914ZM54.7919 348.215C54.4649 348.181 54.2249 347.859 54.2559 347.497C54.3669 346.209 54.5069 344.903 54.6739 343.615C54.7199 343.255 55.0229 343.003 55.3459 343.056C55.6709 343.108 55.8969 343.442 55.8499 343.802C55.6859 345.07 55.5469 346.356 55.4389 347.621C55.4089 347.962 55.1509 348.218 54.8489 348.218C54.8299 348.218 54.8109 348.218 54.7919 348.215ZM56.1919 337.999C55.8719 337.918 55.6719 337.564 55.7459 337.209C56.0079 335.943 56.3079 334.669 56.6359 333.421C56.7279 333.072 57.0549 332.871 57.3729 332.972C57.6889 333.074 57.8689 333.441 57.7779 333.79C57.4549 335.014 57.1609 336.264 56.9039 337.504C56.8409 337.809 56.5959 338.016 56.3249 338.016C56.2819 338.017 56.2359 338.011 56.1919 337.999ZM58.8889 328.115C58.5829 327.978 58.4369 327.595 58.5579 327.258C58.9929 326.056 59.4689 324.848 59.9689 323.67C60.1089 323.339 60.4679 323.205 60.7599 323.354C61.0569 323.51 61.1839 323.903 61.0449 324.231C60.5539 325.386 60.0879 326.57 59.6609 327.748C59.5679 328.006 59.3439 328.163 59.1089 328.163C59.0359 328.163 58.9599 328.147 58.8889 328.115ZM62.9459 318.817C62.6639 318.63 62.5729 318.225 62.7419 317.913C63.3449 316.795 63.9849 315.687 64.6439 314.615C64.8299 314.313 65.1999 314.239 65.4699 314.442C65.7409 314.648 65.8109 315.058 65.6259 315.359C64.9799 316.41 64.3519 317.497 63.7599 318.591C63.6479 318.797 63.4519 318.911 63.2509 318.911C63.1469 318.911 63.0419 318.882 62.9459 318.817ZM68.2629 310.335C68.0109 310.101 67.9769 309.687 68.1869 309.406C68.9419 308.401 69.7279 307.414 70.5239 306.471C70.7499 306.204 71.1259 306.192 71.3639 306.439C71.6039 306.688 71.6159 307.105 71.3919 307.371C70.6109 308.296 69.8409 309.265 69.1009 310.251C68.9829 310.406 68.8139 310.487 68.6439 310.487C68.5089 310.486 68.3749 310.437 68.2629 310.335ZM74.6859 302.847C74.4679 302.575 74.4909 302.158 74.7359 301.917C75.6159 301.051 76.5269 300.204 77.4409 299.401C77.6979 299.175 78.0729 299.221 78.2769 299.508C78.4809 299.794 78.4369 300.208 78.1799 300.435C77.2819 301.223 76.3889 302.053 75.5249 302.903C75.4119 303.014 75.2709 303.069 75.1309 303.069C74.9659 303.068 74.8029 302.994 74.6859 302.847ZM82.0529 296.519C81.8759 296.212 81.9559 295.805 82.2329 295.609C83.2419 294.894 84.2659 294.22 85.2759 293.607C85.5609 293.436 85.9229 293.55 86.0829 293.87C86.2399 294.19 86.1339 294.589 85.8459 294.765C84.8599 295.363 83.8589 296.02 82.8739 296.719C82.7749 296.79 82.6639 296.823 82.5539 296.823C82.3589 296.822 82.1659 296.715 82.0529 296.519Z" fill="#455A64"/>
<path d="M90.8987 292.199C90.9597 292.199 91.0197 292.188 91.0797 292.166C91.7147 291.941 92.2627 291.79 92.7097 291.718C93.0347 291.666 93.2607 291.333 93.2137 290.972C93.1677 290.61 92.8577 290.356 92.5407 290.413C92.0277 290.495 91.4147 290.662 90.7167 290.911C90.4037 291.022 90.2327 291.393 90.3327 291.739C90.4147 292.021 90.6467 292.199 90.8987 292.199Z" fill="#455A64"/>
<path d="M371.698 62.149L310.197 43.3L357.577 75.846L371.698 62.149Z" fill="#125505"/>
<path opacity="0.15" d="M371.698 62.149L310.197 43.3L357.577 75.846L371.698 62.149Z" fill="white"/>
<path d="M310.197 43.3L376.39 53.947L390.51 40.25L310.197 43.3Z" fill="#125505"/>
<path opacity="0.15" d="M310.197 43.3L376.39 53.947L390.51 40.25L310.197 43.3Z" fill="white"/>
<path d="M376.39 53.947L376.455 70.314L371.698 62.149L310.197 43.3L376.39 53.947Z" fill="#125505"/>
<path opacity="0.2" d="M376.39 53.947L376.455 70.314L371.698 62.149L310.197 43.3L376.39 53.947Z" fill="black"/>
<path d="M376.455 70.314L366.991 66.715L371.698 62.149L376.455 70.314Z" fill="#125505"/>
<path opacity="0.2" d="M371.698 62.149L366.991 66.715L368.5 67.289L371.698 62.149Z" fill="black"/>
<path d="M388.862 59.27C388.752 59.354 388.674 59.48 388.649 59.634C388.597 59.974 388.827 60.321 389.166 60.41C389.777 60.569 390.384 60.733 390.992 60.899C391.331 60.994 391.648 60.793 391.705 60.454C391.763 60.116 391.536 59.766 391.199 59.673C390.587 59.504 389.973 59.339 389.357 59.177C389.172 59.129 388.994 59.169 388.862 59.27Z" fill="#455A64"/>
<path d="M397.186 61.498C398.383 61.897 399.568 62.315 400.744 62.751C401.074 62.874 401.272 63.24 401.186 63.57C401.101 63.897 400.76 64.064 400.429 63.944C399.268 63.513 398.094 63.099 396.913 62.704C396.579 62.593 396.37 62.232 396.446 61.899C396.477 61.763 396.551 61.652 396.65 61.577C396.793 61.468 396.989 61.432 397.186 61.498ZM406.6 65.125C407.765 65.639 408.919 66.173 410.057 66.729C410.377 66.884 410.539 67.266 410.418 67.581C410.3 67.896 409.941 68.025 409.621 67.868C408.498 67.32 407.361 66.793 406.211 66.288C405.887 66.144 405.71 65.768 405.817 65.447C405.855 65.335 405.922 65.246 406.006 65.182C406.165 65.061 406.387 65.031 406.6 65.125ZM415.7 69.71C416.816 70.349 417.925 71.015 418.999 71.691C419.302 71.882 419.422 72.276 419.266 72.572C419.108 72.867 418.736 72.95 418.432 72.759C417.375 72.092 416.282 71.436 415.184 70.806C414.873 70.628 414.738 70.239 414.881 69.936C414.919 69.853 414.976 69.784 415.043 69.733C415.219 69.598 415.475 69.581 415.7 69.71ZM424.318 75.318C425.367 76.091 426.4 76.888 427.388 77.691C427.669 77.919 427.74 78.321 427.545 78.587C427.353 78.858 426.964 78.887 426.684 78.659C425.711 77.871 424.696 77.085 423.665 76.326C423.374 76.112 423.285 75.713 423.466 75.434C423.501 75.38 423.544 75.333 423.592 75.297C423.791 75.145 424.084 75.146 424.318 75.318ZM432.268 81.963C433.205 82.849 434.138 83.774 435.038 84.711C435.291 84.973 435.307 85.375 435.076 85.609C434.852 85.835 434.453 85.82 434.202 85.558C433.318 84.638 432.402 83.729 431.481 82.858C431.218 82.609 431.18 82.205 431.398 81.959C431.421 81.932 431.448 81.906 431.476 81.885C431.699 81.714 432.033 81.741 432.268 81.963ZM439.363 89.58C440.009 90.368 440.644 91.172 441.267 91.988L441.774 92.66C441.989 92.95 441.954 93.34 441.695 93.537C441.693 93.538 441.69 93.54 441.689 93.542C441.425 93.737 441.036 93.658 440.819 93.366L440.324 92.709C439.711 91.906 439.087 91.117 438.451 90.342C438.219 90.061 438.237 89.662 438.489 89.452C438.495 89.447 438.502 89.442 438.508 89.437C438.76 89.244 439.138 89.306 439.363 89.58ZM444.607 97.777C444.888 97.606 445.274 97.717 445.468 98.024C446.161 99.116 446.84 100.24 447.488 101.366C447.67 101.68 447.581 102.064 447.292 102.218C447.002 102.374 446.62 102.245 446.439 101.93C445.801 100.822 445.133 99.715 444.452 98.643C444.269 98.353 444.32 97.993 444.56 97.81C444.575 97.798 444.591 97.786 444.607 97.777ZM449.683 106.752C449.987 106.622 450.36 106.783 450.516 107.11C451.074 108.276 451.608 109.471 452.103 110.662C452.241 110.995 452.103 111.354 451.788 111.466C451.475 111.576 451.109 111.393 450.971 111.061C450.486 109.892 449.962 108.719 449.416 107.577C449.281 107.297 449.351 106.983 449.566 106.819C449.601 106.793 449.641 106.77 449.683 106.752ZM453.527 116.249C453.853 116.173 454.202 116.388 454.309 116.731C454.691 117.951 455.045 119.2 455.36 120.44C455.449 120.788 455.245 121.113 454.922 121.171C454.591 121.227 454.252 120.991 454.164 120.646C453.855 119.429 453.508 118.205 453.134 117.01C453.052 116.748 453.135 116.488 453.322 116.346C453.382 116.3 453.451 116.268 453.527 116.249ZM455.934 126.104C456.271 126.082 456.589 126.349 456.644 126.699C456.841 127.953 457.004 129.223 457.129 130.475C457.164 130.828 456.914 131.111 456.577 131.114C456.236 131.115 455.933 130.831 455.897 130.479C455.775 129.252 455.615 128.006 455.423 126.777C455.387 126.545 455.474 126.336 455.634 126.214C455.717 126.151 455.819 126.111 455.934 126.104Z" fill="#455A64"/>
<path d="M466.88 285.83C464.203 284.23 460.422 284.45 456.224 286.874L380.057 330.849C371.926 335.543 365.334 346.699 365.334 355.766C365.334 360.195 366.907 363.305 369.465 364.78C370.855 365.582 376.242 368.691 377.64 369.49C380.31 371.015 384.042 370.767 388.179 368.378L464.347 324.402C472.478 319.708 479.07 308.552 479.07 299.485C479.07 295.076 477.511 291.976 474.974 290.492C473.578 289.675 468.224 286.632 466.88 285.83Z" fill="#E0E0E0"/>
<path d="M381.42 369.951C376.818 369.951 373.958 366.314 373.958 360.46C373.958 351.567 380.45 340.584 388.431 335.976L464.599 292.001C466.873 290.688 469.124 289.994 471.109 289.994C475.713 289.994 478.572 293.63 478.572 299.484C478.572 308.377 472.08 319.36 464.099 323.967L387.93 367.943C385.656 369.257 383.405 369.951 381.42 369.951Z" fill="#FAFAFA"/>
<path d="M471.109 290.494C475.403 290.494 478.071 293.939 478.071 299.484C478.071 308.218 471.691 319.007 463.849 323.535L387.681 367.511C385.483 368.78 383.318 369.451 381.421 369.451C379.37 369.451 377.647 368.673 376.439 367.202C375.144 365.624 374.459 363.293 374.459 360.46C374.459 351.726 380.84 340.937 388.682 336.409L464.849 292.434C467.046 291.165 469.211 290.494 471.109 290.494ZM471.108 289.494C469.084 289.494 466.785 290.161 464.348 291.568L388.181 335.543C380.05 340.237 373.458 351.393 373.458 360.46C373.458 366.81 376.69 370.451 381.42 370.451C383.444 370.451 385.743 369.784 388.18 368.377L464.348 324.401C472.479 319.707 479.07 308.551 479.07 299.484C479.071 293.135 475.839 289.494 471.108 289.494Z" fill="#EBEBEB"/>
<path d="M400.12 345.355C400.429 344.776 400.375 344.18 400.087 344.017C399.994 343.964 397.824 342.714 397.541 342.546C397.447 342.49 397.327 342.481 397.186 342.535L394.847 343.432L394.076 341.794C394.032 341.7 393.972 341.635 393.903 341.597C393.581 341.419 391.422 340.162 391.354 340.123C391.032 339.941 390.498 340.347 390.289 341.031L388.699 346.243C388.599 346.572 388.405 346.871 388.181 347.044L384.627 349.785C384.063 350.22 383.837 351.276 384.246 351.571L386.818 353.429C386.98 353.546 387.054 353.807 387.016 354.127L386.409 359.197C386.365 359.567 386.465 359.816 386.636 359.914C386.837 360.029 389.017 361.291 389.188 361.389C389.389 361.504 389.687 361.411 389.959 361.063L393.138 356.999C393.339 356.743 393.578 356.604 393.779 356.629L396.958 357.022C397.463 357.084 398.053 356.172 397.957 355.478L397.35 351.109C397.312 350.833 397.386 350.487 397.548 350.182L400.12 345.355Z" fill="#125505"/>
<path opacity="0.15" d="M400.09 344.014C399.996 343.964 399.876 343.957 399.738 344.008L396.181 345.372C395.961 345.46 395.766 345.384 395.666 345.171L394.849 343.43L397.187 342.538C397.325 342.482 397.445 342.488 397.539 342.544C397.821 342.714 399.996 343.964 400.09 344.014Z" fill="white"/>
<path opacity="0.15" d="M391.254 347.716C391.153 348.049 390.959 348.345 390.732 348.521L387.181 351.261C387.024 351.38 386.892 351.55 386.798 351.739L384.246 350.262C384.34 350.08 384.472 349.91 384.629 349.784L388.18 347.044C388.406 346.874 388.601 346.573 388.702 346.246V346.24L391.254 347.716Z" fill="white"/>
<path opacity="0.1" d="M393.925 341.608C393.605 341.401 393.058 341.809 392.844 342.507L391.254 347.717L388.702 346.24L390.292 341.03C390.499 340.351 391.034 339.943 391.354 340.125C391.423 340.163 393.579 341.42 393.906 341.596C393.912 341.601 393.919 341.601 393.925 341.608Z" fill="black"/>
<path opacity="0.25" d="M389.368 354.906L386.842 353.454C386.836 353.448 386.829 353.435 386.817 353.429L384.247 351.569C383.952 351.355 383.989 350.752 384.247 350.262L386.799 351.739C386.541 352.223 386.504 352.832 386.799 353.046L389.368 354.906Z" fill="black"/>
<path opacity="0.15" d="M388.96 360.675C388.916 361.052 389.023 361.303 389.205 361.398C389.199 361.398 389.192 361.398 389.186 361.392C389.016 361.291 386.835 360.028 386.634 359.915C386.464 359.815 386.364 359.569 386.408 359.199L387.018 354.127C387.049 353.825 386.987 353.58 386.842 353.455L389.368 354.907C389.374 354.913 389.381 354.92 389.387 354.92L389.393 354.926V354.932C389.538 355.058 389.607 355.309 389.569 355.605L388.96 360.675Z" fill="black"/>
<path d="M394.076 341.794L395.666 345.171C395.766 345.384 395.96 345.46 396.184 345.374L399.738 344.011C400.303 343.795 400.528 344.589 400.12 345.356L397.548 350.184C397.386 350.489 397.312 350.835 397.35 351.111L397.957 355.48C398.053 356.174 397.463 357.086 396.958 357.024L393.779 356.631C393.578 356.606 393.339 356.744 393.138 357.001L389.959 361.065C389.454 361.711 388.864 361.479 388.96 360.674L389.567 355.604C389.605 355.284 389.531 355.023 389.369 354.906L386.797 353.048C386.388 352.753 386.614 351.698 387.178 351.262L390.732 348.521C390.956 348.348 391.15 348.048 391.25 347.72L392.84 342.508C393.094 341.679 393.824 341.258 394.076 341.794Z" fill="#125505"/>
<path opacity="0.5" d="M394.076 341.794L395.666 345.171C395.766 345.384 395.96 345.46 396.184 345.374L399.738 344.011C400.303 343.795 400.528 344.589 400.12 345.356L397.548 350.184C397.386 350.489 397.312 350.835 397.35 351.111L397.957 355.48C398.053 356.174 397.463 357.086 396.958 357.024L393.779 356.631C393.578 356.606 393.339 356.744 393.138 357.001L389.959 361.065C389.454 361.711 388.864 361.479 388.96 360.674L389.567 355.604C389.605 355.284 389.531 355.023 389.369 354.906L386.797 353.048C386.388 352.753 386.614 351.698 387.178 351.262L390.732 348.521C390.956 348.348 391.15 348.048 391.25 347.72L392.84 342.508C393.094 341.679 393.824 341.258 394.076 341.794Z" fill="white"/>
<path d="M417.967 335.064C418.276 334.485 418.222 333.889 417.934 333.726C417.841 333.673 415.671 332.423 415.388 332.255C415.294 332.199 415.174 332.19 415.033 332.244L412.694 333.141L411.923 331.503C411.879 331.409 411.819 331.344 411.75 331.306C411.428 331.128 409.269 329.871 409.201 329.832C408.879 329.65 408.345 330.056 408.136 330.74L406.547 335.952C406.447 336.281 406.253 336.58 406.029 336.753L402.475 339.494C401.91 339.929 401.685 340.984 402.093 341.28L404.665 343.138C404.827 343.255 404.901 343.516 404.863 343.836L404.256 348.906C404.212 349.276 404.312 349.525 404.483 349.623C404.684 349.738 406.864 351 407.035 351.098C407.236 351.213 407.533 351.12 407.806 350.772L410.985 346.708C411.186 346.452 411.425 346.313 411.626 346.338L414.805 346.731C415.31 346.793 415.9 345.881 415.804 345.187L415.197 340.818C415.159 340.542 415.233 340.196 415.395 339.891L417.967 335.064Z" fill="#125505"/>
<path opacity="0.15" d="M417.938 333.724C417.844 333.674 417.724 333.667 417.586 333.718L414.029 335.082C413.809 335.17 413.614 335.095 413.514 334.881L412.697 333.14L415.035 332.247C415.173 332.191 415.293 332.197 415.387 332.253C415.669 332.423 417.844 333.673 417.938 333.724Z" fill="white"/>
<path opacity="0.15" d="M409.102 337.425C409.001 337.758 408.807 338.054 408.58 338.229L405.029 340.969C404.872 341.088 404.74 341.258 404.646 341.447L402.094 339.97C402.188 339.788 402.32 339.618 402.477 339.492L406.028 336.752C406.254 336.582 406.449 336.281 406.55 335.954V335.948L409.102 337.425Z" fill="white"/>
<path opacity="0.1" d="M411.773 331.317C411.452 331.11 410.906 331.518 410.692 332.216L409.102 337.426L406.55 335.949L408.14 330.739C408.347 330.06 408.882 329.652 409.202 329.834C409.271 329.872 411.427 331.129 411.754 331.305C411.76 331.31 411.767 331.31 411.773 331.317Z" fill="black"/>
<path opacity="0.25" d="M407.216 344.615L404.69 343.163C404.684 343.157 404.677 343.144 404.665 343.138L402.095 341.278C401.8 341.064 401.837 340.461 402.095 339.971L404.647 341.448C404.389 341.932 404.352 342.541 404.647 342.755L407.216 344.615Z" fill="black"/>
<path opacity="0.15" d="M406.808 350.384C406.764 350.761 406.871 351.013 407.053 351.107C407.047 351.107 407.04 351.107 407.034 351.101C406.864 351 404.684 349.737 404.483 349.624C404.313 349.524 404.213 349.278 404.257 348.908L404.867 343.836C404.898 343.534 404.836 343.289 404.691 343.164L407.217 344.616C407.223 344.622 407.23 344.629 407.236 344.629L407.242 344.635V344.641C407.387 344.767 407.456 345.018 407.418 345.313L406.808 350.384Z" fill="black"/>
<path d="M411.924 331.503L413.514 334.88C413.614 335.093 413.808 335.169 414.032 335.083L417.586 333.72C418.151 333.503 418.376 334.298 417.967 335.065L415.395 339.893C415.233 340.198 415.159 340.544 415.197 340.82L415.804 345.189C415.9 345.883 415.31 346.795 414.805 346.733L411.626 346.34C411.426 346.315 411.186 346.454 410.985 346.71L407.806 350.774C407.301 351.42 406.711 351.189 406.807 350.383L407.414 345.313C407.452 344.993 407.378 344.732 407.216 344.615L404.644 342.757C404.235 342.462 404.461 341.407 405.026 340.971L408.58 338.23C408.804 338.057 408.998 337.758 409.098 337.429L410.688 332.217C410.942 331.388 411.672 330.967 411.924 331.503Z" fill="#125505"/>
<path opacity="0.5" d="M411.924 331.503L413.514 334.88C413.614 335.093 413.808 335.169 414.032 335.083L417.586 333.72C418.151 333.503 418.376 334.298 417.967 335.065L415.395 339.893C415.233 340.198 415.159 340.544 415.197 340.82L415.804 345.189C415.9 345.883 415.31 346.795 414.805 346.733L411.626 346.34C411.426 346.315 411.186 346.454 410.985 346.71L407.806 350.774C407.301 351.42 406.711 351.189 406.807 350.383L407.414 345.313C407.452 344.993 407.378 344.732 407.216 344.615L404.644 342.757C404.235 342.462 404.461 341.407 405.026 340.971L408.58 338.23C408.804 338.057 408.998 337.758 409.098 337.429L410.688 332.217C410.942 331.388 411.672 330.967 411.924 331.503Z" fill="white"/>
<path d="M435.815 324.774C436.124 324.195 436.07 323.599 435.782 323.436C435.689 323.383 433.519 322.133 433.236 321.964C433.142 321.908 433.022 321.899 432.881 321.953L430.542 322.85L429.771 321.212C429.727 321.118 429.667 321.053 429.598 321.015C429.276 320.837 427.117 319.58 427.049 319.541C426.727 319.359 426.193 319.765 425.984 320.449L424.395 325.661C424.295 325.99 424.101 326.289 423.877 326.462L420.323 329.203C419.758 329.638 419.533 330.694 419.941 330.989L422.513 332.847C422.675 332.964 422.749 333.225 422.711 333.545L422.104 338.615C422.06 338.985 422.16 339.234 422.331 339.332C422.532 339.447 424.712 340.709 424.883 340.807C425.084 340.922 425.382 340.829 425.654 340.481L428.833 336.417C429.034 336.161 429.273 336.022 429.474 336.047L432.653 336.44C433.158 336.503 433.748 335.59 433.652 334.896L433.045 330.527C433.007 330.251 433.081 329.905 433.243 329.6L435.815 324.774Z" fill="#125505"/>
<path opacity="0.15" d="M435.786 323.433C435.692 323.383 435.572 323.377 435.434 323.427L431.877 324.791C431.657 324.879 431.462 324.803 431.362 324.59L430.545 322.849L432.883 321.957C433.021 321.9 433.141 321.907 433.235 321.963C433.517 322.132 435.692 323.383 435.786 323.433Z" fill="white"/>
<path opacity="0.15" d="M426.95 327.135C426.849 327.468 426.655 327.763 426.428 327.939L422.877 330.679C422.72 330.798 422.588 330.968 422.494 331.157L419.942 329.68C420.036 329.498 420.168 329.328 420.325 329.202L423.876 326.462C424.102 326.292 424.297 325.991 424.398 325.664V325.658L426.95 327.135Z" fill="white"/>
<path opacity="0.1" d="M429.621 321.026C429.301 320.819 428.754 321.227 428.54 321.925L426.95 327.135L424.398 325.658L425.988 320.448C426.195 319.769 426.73 319.361 427.05 319.543C427.119 319.581 429.275 320.838 429.602 321.014C429.608 321.02 429.614 321.02 429.621 321.026Z" fill="black"/>
<path opacity="0.25" d="M425.064 334.324L422.538 332.872C422.532 332.866 422.525 332.853 422.513 332.847L419.943 330.987C419.648 330.773 419.685 330.17 419.943 329.68L422.495 331.157C422.237 331.641 422.2 332.251 422.495 332.464L425.064 334.324Z" fill="black"/>
<path opacity="0.15" d="M424.656 340.093C424.612 340.47 424.719 340.721 424.901 340.816C424.895 340.816 424.888 340.816 424.882 340.81C424.712 340.709 422.532 339.446 422.33 339.333C422.16 339.232 422.06 338.987 422.104 338.616L422.714 333.544C422.745 333.242 422.683 332.997 422.538 332.872L425.064 334.324C425.07 334.33 425.076 334.337 425.083 334.337L425.089 334.343V334.349C425.234 334.475 425.303 334.726 425.265 335.021L424.656 340.093Z" fill="black"/>
<path d="M429.772 321.213L431.362 324.59C431.462 324.803 431.656 324.879 431.88 324.793L435.434 323.43C435.999 323.213 436.224 324.008 435.815 324.775L433.243 329.603C433.081 329.908 433.007 330.254 433.045 330.53L433.652 334.899C433.748 335.593 433.158 336.506 432.653 336.443L429.474 336.05C429.273 336.025 429.034 336.164 428.833 336.42L425.654 340.484C425.149 341.13 424.559 340.899 424.655 340.093L425.262 335.022C425.3 334.702 425.226 334.441 425.064 334.324L422.492 332.466C422.083 332.171 422.309 331.116 422.873 330.681L426.427 327.94C426.651 327.767 426.845 327.467 426.945 327.139L428.535 321.927C428.79 321.097 429.52 320.676 429.772 321.213Z" fill="#125505"/>
<path opacity="0.5" d="M429.772 321.213L431.362 324.59C431.462 324.803 431.656 324.879 431.88 324.793L435.434 323.43C435.999 323.213 436.224 324.008 435.815 324.775L433.243 329.603C433.081 329.908 433.007 330.254 433.045 330.53L433.652 334.899C433.748 335.593 433.158 336.506 432.653 336.443L429.474 336.05C429.273 336.025 429.034 336.164 428.833 336.42L425.654 340.484C425.149 341.13 424.559 340.899 424.655 340.093L425.262 335.022C425.3 334.702 425.226 334.441 425.064 334.324L422.492 332.466C422.083 332.171 422.309 331.116 422.873 330.681L426.427 327.94C426.651 327.767 426.845 327.467 426.945 327.139L428.535 321.927C428.79 321.097 429.52 320.676 429.772 321.213Z" fill="white"/>
<path d="M453.663 314.483C453.972 313.904 453.918 313.308 453.63 313.145C453.537 313.092 451.367 311.842 451.084 311.674C450.99 311.618 450.87 311.609 450.729 311.663L448.39 312.56L447.619 310.922C447.575 310.828 447.515 310.763 447.446 310.725C447.124 310.547 444.965 309.29 444.897 309.251C444.575 309.069 444.041 309.475 443.832 310.159L442.242 315.371C442.142 315.7 441.948 315.999 441.724 316.172L438.17 318.913C437.606 319.348 437.38 320.404 437.789 320.699L440.361 322.557C440.523 322.674 440.597 322.935 440.559 323.255L439.952 328.325C439.908 328.695 440.008 328.944 440.179 329.042C440.38 329.158 442.56 330.419 442.731 330.517C442.932 330.632 443.23 330.539 443.502 330.191L446.681 326.127C446.882 325.871 447.121 325.732 447.322 325.757L450.501 326.15C451.006 326.212 451.596 325.3 451.5 324.606L450.893 320.237C450.855 319.961 450.929 319.615 451.091 319.31L453.663 314.483Z" fill="#125505"/>
<path opacity="0.15" d="M453.634 313.142C453.54 313.092 453.42 313.086 453.282 313.136L449.725 314.5C449.505 314.588 449.31 314.512 449.21 314.299L448.393 312.558L450.731 311.666C450.869 311.609 450.989 311.616 451.083 311.672C451.365 311.841 453.539 313.092 453.634 313.142Z" fill="white"/>
<path opacity="0.15" d="M444.798 316.844C444.697 317.177 444.503 317.472 444.276 317.648L440.725 320.388C440.568 320.507 440.436 320.677 440.342 320.866L437.79 319.389C437.884 319.207 438.016 319.037 438.173 318.911L441.724 316.171C441.95 316.001 442.145 315.7 442.246 315.373V315.367L444.798 316.844Z" fill="white"/>
<path opacity="0.1" d="M447.469 310.735C447.149 310.528 446.602 310.936 446.388 311.634L444.798 316.844L442.246 315.367L443.836 310.157C444.043 309.478 444.578 309.07 444.898 309.252C444.967 309.29 447.123 310.547 447.45 310.723C447.456 310.729 447.462 310.729 447.469 310.735Z" fill="black"/>
<path opacity="0.25" d="M442.912 324.033L440.386 322.581C440.38 322.575 440.373 322.562 440.361 322.556L437.791 320.696C437.496 320.482 437.533 319.879 437.791 319.389L440.343 320.866C440.085 321.35 440.048 321.96 440.343 322.173L442.912 324.033Z" fill="black"/>
<path opacity="0.15" d="M442.504 329.803C442.46 330.18 442.567 330.431 442.749 330.526C442.743 330.526 442.736 330.526 442.73 330.52C442.56 330.419 440.379 329.156 440.178 329.043C440.008 328.942 439.908 328.697 439.952 328.327L440.562 323.255C440.593 322.953 440.531 322.708 440.386 322.583L442.912 324.035C442.918 324.041 442.925 324.048 442.931 324.048L442.937 324.054V324.06C443.082 324.186 443.151 324.437 443.113 324.732L442.504 329.803Z" fill="black"/>
<path d="M447.62 310.922L449.21 314.298C449.31 314.511 449.504 314.587 449.728 314.501L453.282 313.138C453.847 312.921 454.072 313.716 453.663 314.483L451.091 319.311C450.929 319.616 450.855 319.962 450.893 320.238L451.5 324.607C451.596 325.301 451.006 326.214 450.501 326.151L447.322 325.758C447.121 325.733 446.882 325.871 446.681 326.128L443.502 330.192C442.997 330.838 442.407 330.607 442.503 329.801L443.11 324.731C443.148 324.411 443.074 324.15 442.912 324.033L440.34 322.175C439.931 321.88 440.157 320.825 440.721 320.389L444.275 317.648C444.499 317.475 444.693 317.175 444.793 316.847L446.383 311.635C446.638 310.807 447.367 310.385 447.62 310.922Z" fill="#125505"/>
<path opacity="0.5" d="M447.62 310.922L449.21 314.298C449.31 314.511 449.504 314.587 449.728 314.501L453.282 313.138C453.847 312.921 454.072 313.716 453.663 314.483L451.091 319.311C450.929 319.616 450.855 319.962 450.893 320.238L451.5 324.607C451.596 325.301 451.006 326.214 450.501 326.151L447.322 325.758C447.121 325.733 446.882 325.871 446.681 326.128L443.502 330.192C442.997 330.838 442.407 330.607 442.503 329.801L443.11 324.731C443.148 324.411 443.074 324.15 442.912 324.033L440.34 322.175C439.931 321.88 440.157 320.825 440.721 320.389L444.275 317.648C444.499 317.475 444.693 317.175 444.793 316.847L446.383 311.635C446.638 310.807 447.367 310.385 447.62 310.922Z" fill="white"/>
<path d="M471.511 304.192C471.82 303.613 471.766 303.017 471.478 302.854C471.385 302.801 469.215 301.551 468.932 301.383C468.838 301.327 468.718 301.318 468.577 301.372L466.238 302.269L465.467 300.631C465.423 300.537 465.363 300.472 465.294 300.434C464.972 300.256 462.813 298.999 462.745 298.96C462.423 298.778 461.889 299.184 461.68 299.868L460.091 305.08C459.991 305.409 459.797 305.708 459.573 305.881L456.019 308.622C455.454 309.057 455.229 310.112 455.637 310.408L458.209 312.266C458.371 312.383 458.445 312.644 458.407 312.964L457.8 318.034C457.756 318.404 457.856 318.653 458.027 318.751C458.228 318.867 460.408 320.128 460.579 320.226C460.78 320.341 461.077 320.248 461.35 319.899L464.529 315.835C464.73 315.579 464.969 315.44 465.17 315.465L468.349 315.858C468.854 315.92 469.444 315.008 469.348 314.314L468.741 309.945C468.703 309.669 468.777 309.323 468.939 309.018L471.511 304.192Z" fill="#125505"/>
<path opacity="0.15" d="M471.482 302.851C471.388 302.801 471.268 302.794 471.13 302.845L467.573 304.209C467.353 304.297 467.158 304.222 467.058 304.008L466.241 302.267L468.579 301.375C468.717 301.318 468.837 301.325 468.931 301.381C469.213 301.55 471.387 302.801 471.482 302.851Z" fill="white"/>
<path opacity="0.15" d="M462.646 306.553C462.545 306.886 462.351 307.181 462.124 307.357L458.573 310.097C458.416 310.216 458.284 310.386 458.19 310.575L455.638 309.098C455.732 308.916 455.864 308.746 456.021 308.62L459.572 305.88C459.798 305.71 459.993 305.409 460.094 305.082V305.076L462.646 306.553Z" fill="white"/>
<path opacity="0.1" d="M465.316 300.444C464.995 300.237 464.449 300.645 464.235 301.343L462.645 306.553L460.093 305.076L461.683 299.866C461.89 299.187 462.425 298.779 462.745 298.961C462.814 298.999 464.97 300.256 465.297 300.432C465.304 300.438 465.31 300.438 465.316 300.444Z" fill="black"/>
<path opacity="0.25" d="M460.76 313.743L458.234 312.291C458.228 312.285 458.221 312.272 458.209 312.266L455.639 310.406C455.344 310.192 455.381 309.589 455.639 309.099L458.191 310.576C457.933 311.06 457.896 311.67 458.191 311.883L460.76 313.743Z" fill="black"/>
<path opacity="0.15" d="M460.352 319.512C460.308 319.889 460.415 320.14 460.597 320.235C460.591 320.235 460.584 320.235 460.578 320.229C460.408 320.128 458.228 318.865 458.027 318.752C457.857 318.652 457.757 318.406 457.801 318.036L458.411 312.964C458.442 312.662 458.38 312.417 458.235 312.292L460.761 313.744C460.767 313.75 460.774 313.756 460.78 313.756L460.786 313.762V313.768C460.931 313.894 461 314.145 460.962 314.44L460.352 319.512Z" fill="black"/>
<path d="M465.468 300.631L467.058 304.008C467.158 304.221 467.352 304.297 467.576 304.211L471.13 302.848C471.695 302.631 471.92 303.426 471.512 304.193L468.94 309.021C468.778 309.325 468.704 309.672 468.742 309.948L469.349 314.317C469.445 315.011 468.855 315.923 468.35 315.861L465.171 315.468C464.971 315.443 464.731 315.581 464.53 315.838L461.351 319.902C460.846 320.548 460.256 320.317 460.352 319.511L460.959 314.441C460.997 314.121 460.923 313.86 460.761 313.743L458.189 311.885C457.78 311.59 458.006 310.535 458.571 310.099L462.125 307.358C462.349 307.185 462.543 306.885 462.643 306.557L464.233 301.345C464.486 300.516 465.215 300.095 465.468 300.631Z" fill="#125505"/>
<path opacity="0.5" d="M465.468 300.631L467.058 304.008C467.158 304.221 467.352 304.297 467.576 304.211L471.13 302.848C471.695 302.631 471.92 303.426 471.512 304.193L468.94 309.021C468.778 309.325 468.704 309.672 468.742 309.948L469.349 314.317C469.445 315.011 468.855 315.923 468.35 315.861L465.171 315.468C464.971 315.443 464.731 315.581 464.53 315.838L461.351 319.902C460.846 320.548 460.256 320.317 460.352 319.511L460.959 314.441C460.997 314.121 460.923 313.86 460.761 313.743L458.189 311.885C457.78 311.59 458.006 310.535 458.571 310.099L462.125 307.358C462.349 307.185 462.543 306.885 462.643 306.557L464.233 301.345C464.486 300.516 465.215 300.095 465.468 300.631Z" fill="white"/>
<path d="M478.316 56.964L470.322 60.389L468.611 68.916C468.401 69.962 467.083 70.313 466.381 69.51L460.654 62.966L452.016 63.974C450.956 64.098 450.215 62.953 450.761 62.036L455.215 54.567L451.587 46.663C451.142 45.693 452.002 44.635 453.042 44.871L461.522 46.799L467.918 40.906C468.702 40.183 469.975 40.674 470.072 41.736L470.859 50.397L478.44 54.659C479.369 55.182 479.296 56.544 478.316 56.964Z" fill="#E0E0E0"/>
<path d="M434.225 42.176C434.158 42.267 434.075 42.348 433.98 42.418C433.633 42.671 433.181 42.703 432.8 42.504L428.345 40.162L423.89 42.505C423.51 42.705 423.058 42.672 422.712 42.419C422.364 42.166 422.193 41.747 422.266 41.324L423.116 36.363L419.512 32.85C419.205 32.551 419.096 32.111 419.228 31.703C419.361 31.294 419.709 31.002 420.131 30.941L425.112 30.216L427.339 25.703C427.528 25.32 427.913 25.08 428.342 25.078C428.771 25.078 429.156 25.317 429.346 25.703L431.574 30.216L436.556 30.939C436.981 31.001 437.327 31.293 437.459 31.7C437.593 32.109 437.483 32.552 437.176 32.848L437.175 32.849L433.572 36.362L434.424 41.323C434.478 41.63 434.403 41.935 434.225 42.176ZM419.953 31.793C419.926 31.829 419.905 31.872 419.89 31.917C419.839 32.075 419.879 32.237 419.998 32.353L423.864 36.122L422.951 41.442C422.924 41.605 422.987 41.76 423.12 41.857C423.254 41.954 423.421 41.966 423.567 41.89L428.345 39.377L433.123 41.887C433.27 41.964 433.437 41.952 433.57 41.855C433.706 41.76 433.765 41.604 433.739 41.439L432.826 36.119L436.692 32.35C436.802 32.239 436.849 32.072 436.799 31.915C436.749 31.758 436.62 31.65 436.457 31.627L431.115 30.851L428.724 26.009C428.652 25.861 428.509 25.773 428.344 25.772C428.179 25.773 428.041 25.86 427.963 26.009L425.575 30.851L420.232 31.628C420.116 31.646 420.018 31.705 419.953 31.793Z" fill="#E0E0E0"/>
<path d="M378.544 109C371.014 104.636 360.659 105.231 349.222 111.834C326.197 125.127 307.532 157.701 307.532 184.591C307.532 198.121 312.269 207.609 319.903 212.017C321.667 213.036 328.593 216.989 328.587 217.028C327.83 222.206 325.67 227.672 318.874 231.687C318.439 231.944 318.714 232.367 319.097 232.594C319.256 232.688 329.275 238.47 329.665 238.695C329.821 238.785 329.994 238.843 330.144 238.843C340.548 238.86 352.602 231.849 355.956 217.297C357.215 216.704 358.488 216.047 359.777 215.303C382.802 202.01 401.467 169.436 401.467 142.546C401.467 129.014 396.737 119.506 389.105 115.09C387.329 114.061 380.3 110.017 378.544 109Z" fill="#37474F"/>
<path d="M359.778 117.928C336.754 131.221 318.088 163.795 318.088 190.685C318.088 208.927 326.684 219.854 339.399 220.852C338.924 226.654 337.231 233.173 329.43 237.782C328.814 238.146 329.621 238.843 330.144 238.844C340.548 238.861 352.602 231.85 355.955 217.298C357.214 216.705 358.487 216.048 359.776 215.304C382.8 202.011 401.465 169.437 401.465 142.547C401.467 115.657 382.802 104.635 359.778 117.928Z" fill="#455A64"/>
<path d="M329.431 237.782C329.054 238.016 329.223 238.367 329.535 238.613C328.288 237.898 319.245 232.688 319.102 232.597C318.712 232.363 318.439 231.947 318.881 231.687C325.677 227.672 327.833 222.202 328.587 217.031L329.743 217.707L330.795 218.331C333.368 219.76 336.252 220.605 339.396 220.852C338.929 226.647 337.227 233.169 329.431 237.782Z" fill="#263238"/>
<path d="M355.384 194.892C354.268 194.105 353.712 192.684 353.712 190.63C353.712 188.578 354.259 186.546 355.353 184.538C356.448 182.528 357.845 181.032 359.547 180.05C361.249 179.068 362.646 178.949 363.74 179.696C364.834 180.443 365.381 181.842 365.381 183.894C365.381 185.948 364.824 188.012 363.709 190.086C362.595 192.161 361.207 193.677 359.547 194.636C357.885 195.594 356.497 195.681 355.384 194.892ZM353.894 140.529L365.199 134.002L363.314 172.121L355.779 176.471L353.894 140.529Z" fill="#FAFAFA"/>
<path opacity="0.2" d="M365.342 211.645C377.622 202.641 388.205 188.381 394.687 173.062C382.408 182.066 371.824 196.326 365.342 211.645Z" fill="black"/>
<path d="M443.858 263.754C439.604 263.799 436.434 260.823 434.444 257.072C447.2 241.382 455.829 220.483 455.829 202.205C455.829 188.65 451.083 179.132 443.428 174.726C441.661 173.709 434.645 169.665 432.881 168.646C425.353 164.297 415.007 164.897 403.582 171.494C380.557 184.787 361.892 217.361 361.892 244.251C361.892 257.78 366.619 267.287 374.248 271.704C376.027 272.734 383.036 276.759 384.775 277.772C392.309 282.163 402.681 281.578 414.14 274.962C417.126 273.238 420.037 271.183 422.846 268.864C430.592 274.991 440.034 268.312 443.773 265.115C444.273 264.686 444.328 263.749 443.858 263.754Z" fill="#E0E0E0"/>
<path d="M395.689 279.948C381.755 279.948 373.1 268.604 373.1 250.344C373.1 223.704 391.657 191.319 414.465 178.15C420.843 174.467 426.942 172.6 432.591 172.6C446.525 172.6 455.18 183.944 455.18 202.205C455.18 219.681 447.041 240.547 433.94 256.663L433.668 256.997L433.869 257.377C436.22 261.806 439.629 264.29 443.493 264.4C443.464 264.48 443.417 264.564 443.35 264.621C440.689 266.895 435.409 270.711 429.938 270.711H429.936C427.475 270.711 425.225 269.918 423.248 268.354L422.836 268.028L422.431 268.363C419.596 270.704 416.697 272.735 413.814 274.399C407.436 278.082 401.338 279.948 395.689 279.948Z" fill="#FAFAFA"/>
<path d="M432.588 171.95L432.59 173.249C446.123 173.25 454.529 184.345 454.529 202.204C454.529 219.537 446.446 240.247 433.435 256.252L432.892 256.92L433.296 257.681C435.46 261.76 438.504 264.267 441.995 264.896C439.217 267.107 434.628 270.061 429.937 270.061C427.627 270.061 425.512 269.315 423.652 267.844L422.829 267.193L422.019 267.861C419.211 270.179 416.342 272.189 413.491 273.835C407.213 277.46 401.223 279.298 395.689 279.298C382.156 279.298 373.75 268.203 373.75 250.343C373.75 223.91 392.161 191.777 414.79 178.711C421.068 175.086 427.057 173.248 432.589 173.248L432.588 171.95ZM432.591 171.95C427.028 171.95 420.766 173.761 414.14 177.587C391.115 190.88 372.45 223.455 372.45 250.344C372.45 269.495 381.92 280.598 395.688 280.598C401.251 280.598 407.514 278.787 414.14 274.961C417.126 273.237 420.037 271.182 422.846 268.863C425.125 270.666 427.553 271.36 429.937 271.36C435.656 271.36 441.134 267.37 443.773 265.114C444.273 264.687 444.329 263.753 443.862 263.753C443.861 263.753 443.86 263.753 443.858 263.753C443.826 263.753 443.795 263.754 443.763 263.754C439.557 263.754 436.419 260.795 434.444 257.072C447.2 241.382 455.829 220.483 455.829 202.205C455.829 183.054 446.358 171.952 432.591 171.95Z" fill="#125505"/>
<path d="M412.025 230.854C412.976 228.468 414.365 225.642 416.188 222.373C417.525 219.981 418.507 218.049 419.135 216.579C419.763 215.11 420.076 213.673 420.076 212.268C420.076 210.27 419.479 209.036 418.284 208.563C417.089 208.092 415.498 208.429 413.513 209.575C411.609 210.674 409.917 212.177 408.439 214.084C406.96 215.991 405.714 218.183 404.701 220.658L397.348 219.15C399.05 214.711 401.348 210.71 404.246 207.146C407.142 203.583 410.576 200.655 414.547 198.363C419.206 195.673 422.943 194.839 425.76 195.859C428.575 196.881 429.983 199.74 429.983 204.441C429.983 206.656 429.71 208.759 429.163 210.748C428.616 212.74 427.948 214.544 427.157 216.161C426.367 217.779 425.344 219.707 424.088 221.944C422.589 224.591 421.495 226.722 420.807 228.335C420.117 229.949 419.773 231.62 419.773 233.347L410.596 238.645C410.596 235.84 411.072 233.241 412.025 230.854ZM411.051 256.576C409.937 255.788 409.38 254.368 409.38 252.314C409.38 250.262 409.927 248.231 411.021 246.221C412.116 244.211 413.512 242.716 415.214 241.734C416.916 240.751 418.314 240.634 419.407 241.38C420.502 242.125 421.048 243.525 421.048 245.577C421.048 247.631 420.491 249.694 419.376 251.769C418.262 253.845 416.874 255.361 415.213 256.319C413.553 257.279 412.165 257.365 411.051 256.576Z" fill="#455A64"/>
<path d="M200.777 185.3L154.777 211.935L173.049 242.999C173.447 243.894 174.07 244.543 174.797 244.955C176.98 246.192 189.886 253.666 190.599 254.079C192.782 255.343 195.934 254.452 196.77 251.621L216.61 194.441L200.777 185.3Z" fill="#125505"/>
<path opacity="0.2" d="M200.777 185.3L154.777 211.935L173.049 242.999C173.447 243.894 174.07 244.543 174.797 244.955C176.98 246.192 189.886 253.666 190.599 254.079C192.782 255.343 195.934 254.452 196.77 251.621L216.61 194.441L200.777 185.3Z" fill="black"/>
<path d="M170.61 221.077L188.883 252.141C190.475 255.719 195.662 255.378 196.771 251.622L216.611 194.442L170.61 221.077Z" fill="#125505"/>
<path d="M252.103 25.981L78.6299 126.13C76.4309 127.399 74.6479 130.488 74.6479 133.026V253.422C74.6479 255.961 76.4409 259.032 78.6519 260.279L92.9159 268.276C95.1279 269.524 98.7029 269.507 100.902 268.237L274.377 168.088C276.576 166.818 278.358 163.731 278.358 161.191V40.796C278.358 38.257 276.565 35.186 274.354 33.938L260.088 25.941C257.877 24.693 254.301 24.711 252.103 25.981Z" fill="#125505"/>
<path opacity="0.3" d="M278.305 40.074C277.992 38.069 276.356 37.352 274.369 38.492L100.91 138.647C99.8071 139.29 98.8141 140.375 98.0961 141.626L75.8931 128.961C76.6111 127.765 77.5671 126.735 78.6341 126.129L252.112 25.974C254.301 24.705 257.868 24.687 260.094 25.937L274.351 33.931C276.356 35.072 278.028 37.702 278.305 40.074Z" fill="white"/>
<path d="M96.9199 266.4V146.004C96.9199 143.465 98.7029 140.377 100.902 139.107L274.376 38.958C276.575 37.688 278.357 38.717 278.357 41.257V161.653C278.357 164.193 276.574 167.28 274.376 168.55L100.902 268.698C98.7029 269.969 96.9199 268.939 96.9199 266.4Z" fill="#125505"/>
<path opacity="0.2" d="M100.902 268.238C98.7831 269.468 94.9111 269.512 92.9101 268.285L78.6531 260.273C76.4461 259.041 74.6431 255.97 74.6431 253.431V133.025C74.6431 131.701 75.1401 130.248 75.9131 128.961L98.0971 141.626C97.3611 142.858 96.9201 144.274 96.9201 145.543V265.931C96.9201 268.257 98.5591 269.598 100.902 268.238Z" fill="black"/>
<path d="M145.594 170.017L143.856 169.014C142.51 168.237 140.851 168.237 139.505 169.014L128.942 175.112V160.664L148.506 149.368C150.39 148.28 151.551 146.27 151.551 144.094V135.991C151.551 133.815 150.39 131.805 148.505 130.717C146.621 129.63 144.3 129.63 142.416 130.717L115.281 146.384C112.011 148.272 109.996 151.762 109.996 155.538V230.729C109.996 232.905 111.157 234.916 113.042 236.003C114.926 237.09 117.247 237.09 119.131 236.003L125.897 232.097C127.781 231.009 128.942 228.999 128.942 226.823V197.335L145.594 187.72C146.94 186.943 147.77 185.506 147.77 183.952V173.785C147.771 172.231 146.941 170.794 145.594 170.017Z" fill="#E0E0E0"/>
<path opacity="0.1" d="M119.713 235.662L119.133 236.002C118.193 236.552 117.133 236.822 116.083 236.822C115.033 236.822 113.983 236.552 113.043 236.002C111.153 234.922 109.993 232.902 109.993 230.732V155.542C109.993 153.762 110.453 152.062 111.263 150.552L117.353 154.062C116.533 155.572 116.083 157.282 116.083 159.052V233.542C116.083 235.402 118.103 236.582 119.713 235.662Z" fill="black"/>
<path d="M128.943 160.665V182.144L145.567 172.547C146.547 171.981 147.771 172.688 147.771 173.82V183.968C147.771 185.515 146.946 186.944 145.606 187.717L128.942 197.338V226.834C128.942 229.004 127.784 231.01 125.904 232.095L119.744 235.652C118.118 236.59 116.087 235.417 116.087 233.54V159.055C116.087 155.279 118.102 151.789 121.372 149.901L148.25 134.382C149.717 133.535 151.55 134.594 151.55 136.287V144.121C151.55 146.281 150.398 148.276 148.528 149.356L128.943 160.665Z" fill="#FAFAFA"/>
<path d="M186.993 115.242C186.473 113.472 185.293 111.962 183.693 111.042C182.573 110.402 181.333 110.082 180.093 110.082C178.853 110.082 177.613 110.402 176.493 111.042L169.763 114.932C168.013 115.942 166.763 117.642 166.333 119.622L146.273 210.962C145.923 212.562 146.653 214.192 148.063 215.012L149.903 216.072C151.063 216.742 152.493 216.742 153.653 216.072L161.763 211.392C162.813 210.782 163.703 209.832 164.423 208.542C165.143 207.262 165.643 205.992 165.913 204.742L169.173 188.082L185.573 178.612L187.273 185.382C187.633 186.422 188.143 187.142 188.823 187.542C189.503 187.942 194.233 190.652 194.913 191.062C195.593 191.462 196.493 191.342 197.603 190.702L207.503 184.982L186.993 115.242ZM173.663 165.072L177.183 146.952C177.253 146.642 177.323 146.322 177.393 145.992L181.113 160.762L173.663 165.072Z" fill="#E0E0E0"/>
<path opacity="0.1" d="M194.833 191.012C193.943 190.482 189.483 187.932 188.823 187.542C188.143 187.142 187.633 186.422 187.273 185.382L185.573 178.612L190.113 175.992L193.363 188.892C193.713 189.892 194.193 190.592 194.833 191.012Z" fill="black"/>
<path opacity="0.1" d="M187.204 164.282L181.114 160.762L177.394 145.992C177.394 145.992 177.394 145.992 177.394 145.982C177.394 145.962 177.404 145.942 177.404 145.922C177.724 144.482 178.044 142.842 178.394 141.022C178.824 138.752 179.224 136.332 179.604 133.742C180.034 135.822 180.464 137.742 180.894 139.492C181.324 141.242 181.724 142.742 182.104 144.002L187.204 164.282Z" fill="black"/>
<path opacity="0.1" d="M152.473 213.992C152.233 215.082 153.263 215.962 154.243 215.672L154.223 215.752L153.653 216.072C152.493 216.742 151.063 216.742 149.903 216.072L148.063 215.012C146.653 214.192 145.923 212.562 146.273 210.962L166.333 119.622C166.513 118.772 166.863 117.972 167.333 117.252L173.423 120.772C172.943 121.482 172.603 122.282 172.423 123.132L152.473 213.992Z" fill="black"/>
<path d="M207.507 184.981L197.602 190.7C196.493 191.341 195.598 191.46 194.918 191.057C194.237 190.655 193.721 189.934 193.368 188.896L190.116 175.989L169.171 188.081L165.919 204.744C165.642 205.991 165.145 207.258 164.426 208.546C163.708 209.833 162.819 210.783 161.761 211.394L154.587 215.536C153.511 216.158 152.208 215.205 152.475 213.991L172.422 123.135C172.856 121.16 174.1 119.459 175.852 118.447L182.32 114.713C184.289 113.576 186.803 114.582 187.445 116.763L207.507 184.981ZM187.204 164.28L182.1 144.002C181.722 142.747 181.319 141.243 180.889 139.491C180.46 137.74 180.033 135.824 179.604 133.743C179.226 136.329 178.823 138.755 178.395 141.018C177.966 143.285 177.563 145.264 177.184 146.956L172.119 172.99L187.204 164.28Z" fill="#FAFAFA"/>
<path d="M254.913 150.042C256.623 147.112 258.153 144.002 259.503 140.702C260.853 137.402 261.983 134.002 262.903 130.522C263.823 127.042 264.533 123.482 265.023 119.842C265.513 116.202 265.763 112.562 265.763 108.912C265.763 102.822 265.073 97.532 263.703 93.042C262.323 88.562 260.393 85.102 257.903 82.662C257.003 81.792 256.053 81.062 255.023 80.482C254.023 79.912 250.013 77.582 249.023 77.012C247.163 75.922 245.083 75.312 242.793 75.182C239.273 74.982 235.373 76.122 231.093 78.592C226.803 81.062 222.893 84.422 219.373 88.672C215.843 92.922 212.823 97.712 210.313 103.042C207.803 108.372 205.863 114.072 204.493 120.142C203.113 126.212 202.433 132.312 202.433 138.442C202.433 144.572 203.113 149.882 204.493 154.372C205.863 158.852 207.803 162.322 210.313 164.772C211.213 165.662 212.193 166.392 213.223 166.972C214.213 167.532 218.173 169.832 219.153 170.402C221.033 171.502 223.133 172.112 225.463 172.232C228.983 172.402 232.893 171.252 237.183 168.782C239.003 167.732 240.733 166.532 242.373 165.182L244.853 168.032C245.223 168.402 245.603 168.702 245.993 168.922C246.693 169.332 251.673 172.192 252.053 172.422C252.763 172.842 253.503 173.022 254.283 172.962C255.483 172.872 256.843 172.392 258.353 171.512L268.863 165.452L254.913 150.042ZM245.533 124.942C244.823 128.702 243.813 132.132 242.483 135.222C241.163 138.322 239.543 141.032 237.633 143.352C235.713 145.682 233.533 147.552 231.093 148.962C228.823 150.282 226.783 150.932 224.973 150.942C224.003 149.472 223.233 147.552 222.663 145.172C221.953 142.222 221.603 138.642 221.603 134.412C221.603 130.212 221.953 126.242 222.663 122.472C223.363 118.712 224.383 115.282 225.703 112.192C227.023 109.102 228.653 106.372 230.583 104.022C232.513 101.662 234.713 99.772 237.183 98.342C239.403 97.062 241.403 96.422 243.193 96.422C244.173 97.902 244.953 99.842 245.533 102.242C246.233 105.192 246.593 108.762 246.593 112.952C246.593 117.182 246.233 121.172 245.533 124.942Z" fill="#E0E0E0"/>
<path opacity="0.1" d="M218.903 170.252C217.633 169.522 214.143 167.492 213.223 166.972C212.193 166.392 211.213 165.662 210.313 164.772C207.803 162.322 205.863 158.852 204.493 154.372C203.113 149.882 202.433 144.572 202.433 138.442C202.433 132.312 203.113 126.212 204.493 120.142C205.763 114.522 207.523 109.222 209.773 104.232L215.863 107.752C213.613 112.732 211.853 118.032 210.583 123.662C209.203 129.732 208.523 135.832 208.523 141.962C208.523 148.092 209.203 153.402 210.583 157.882C211.953 162.372 213.893 165.842 216.403 168.292C217.183 169.052 218.023 169.712 218.903 170.252Z" fill="black"/>
<path opacity="0.1" d="M248.573 98.982C247.253 97.422 245.633 96.572 243.723 96.432C243.552 96.42 243.373 96.429 243.197 96.429C244.175 97.908 244.954 99.845 245.533 102.242C246.233 105.192 246.593 108.762 246.593 112.952C246.593 117.182 246.233 121.172 245.533 124.942C244.823 128.702 243.813 132.132 242.483 135.222C241.163 138.322 239.543 141.032 237.633 143.352C235.713 145.682 233.533 147.552 231.093 148.962C228.823 150.282 226.783 150.932 224.973 150.942C225.193 151.302 225.443 151.632 225.703 151.942C227.023 153.512 228.653 154.352 230.583 154.452C232.513 154.562 234.713 153.912 237.183 152.482C239.623 151.072 241.803 149.202 243.723 146.872C245.633 144.542 247.253 141.832 248.573 138.742C249.903 135.652 250.913 132.222 251.623 128.452C252.323 124.692 252.683 120.692 252.683 116.462C252.683 112.272 252.323 108.702 251.623 105.752C250.913 102.802 249.903 100.542 248.573 98.982Z" fill="black"/>
<path opacity="0.1" d="M244.103 163.682C243.533 164.202 242.963 164.702 242.373 165.182L244.853 168.032C245.223 168.402 245.603 168.702 245.993 168.922C246.673 169.322 251.363 172.012 252.003 172.392C251.643 172.172 251.283 171.892 250.943 171.542L244.103 163.682Z" fill="black"/>
<path d="M268.862 165.448L258.351 171.516C256.838 172.389 255.484 172.87 254.288 172.96C253.09 173.048 251.975 172.577 250.941 171.544L244.098 163.679C241.955 165.654 239.649 167.354 237.179 168.78C232.894 171.254 228.987 172.403 225.458 172.228C221.93 172.054 218.911 170.741 216.403 168.289C213.894 165.838 211.954 162.369 210.58 157.884C209.207 153.401 208.52 148.092 208.52 141.96C208.52 135.829 209.207 129.728 210.58 123.657C211.954 117.587 213.894 111.886 216.403 106.558C218.911 101.229 221.929 96.439 225.458 92.191C228.986 87.941 232.894 84.58 237.179 82.106C241.463 79.632 245.364 78.497 248.88 78.697C252.396 78.9 255.401 80.22 257.898 82.659C260.392 85.099 262.327 88.562 263.701 93.046C265.075 97.531 265.763 102.82 265.763 108.912C265.763 112.56 265.517 116.204 265.026 119.844C264.535 123.486 263.828 127.045 262.908 130.526C261.988 134.006 260.854 137.398 259.506 140.698C258.157 144.001 256.626 147.116 254.912 150.045L268.862 165.448ZM221.602 134.407C221.602 138.637 221.955 142.226 222.661 145.176C223.366 148.127 224.381 150.383 225.705 151.947C227.028 153.512 228.653 154.348 230.582 154.458C232.51 154.567 234.709 153.909 237.18 152.482C239.624 151.071 241.805 149.2 243.721 146.872C245.635 144.545 247.256 141.834 248.578 138.741C249.901 135.649 250.916 132.221 251.622 128.456C252.327 124.692 252.681 120.696 252.681 116.466C252.681 112.275 252.327 108.704 251.622 105.755C250.916 102.807 249.901 100.548 248.578 98.984C247.256 97.42 245.635 96.571 243.721 96.433C241.805 96.297 239.624 96.936 237.18 98.347C234.709 99.774 232.51 101.664 230.582 104.018C228.653 106.375 227.028 109.098 225.705 112.19C224.381 115.282 223.366 118.711 222.661 122.475C221.955 126.238 221.602 130.216 221.602 134.407Z" fill="#FAFAFA"/>
</svg>
