<svg width="100" height="100" viewBox="0 0 100 100" fill="none" xmlns="http://www.w3.org/2000/svg">
<path d="M89.125 67.6406H87.6719L86.2344 63.875C85.5781 62.1718 84.1562 60.8593 82.4219 60.3594L76.1562 58.5468C75.2812 58.2968 74.375 58.2343 73.5 58.375L73.3125 57.875C72.7656 56.4687 71.5156 55.4531 70.0312 55.2031L63.2031 54.0781L61.2969 29.7656C62.6094 29.2187 63.5312 28.0156 63.8281 26.5781C65.1406 25.7656 66 24.3437 66 22.7344V15.7969C66 13.2812 63.9531 11.2344 61.4375 11.2344H58.9375C57.0781 8.26562 53.7969 6.26562 50.0469 6.26562C46.2969 6.26562 43.0156 8.26562 41.1562 11.2344H38.6562C36.1406 11.2344 34.0937 13.2812 34.0937 15.7969V22.7344C34.0937 24.3281 34.9531 25.75 36.2656 26.5781C36.5625 28.0156 37.4687 29.2187 38.7812 29.7656L37.2344 49.4062L33.5937 49.1562C31.7969 49.0312 30.0312 49.7031 28.7656 51L24.2187 55.6875C23.4219 56.5 22.9375 57.5468 22.7187 58.6562H18.9531C17.4531 58.6562 16.0469 59.4531 15.2812 60.7343L13.6719 63.4531C12.9531 64.6562 12.7344 66.0625 13.0156 67.4218L13.0625 67.6718H10.9062C8.35937 67.6718 6.28125 69.75 6.28125 72.2968V89.1562C6.28125 91.7031 8.35937 93.7812 10.9062 93.7812H89.125C91.6719 93.7812 93.75 91.7031 93.75 89.1562V72.2968C93.75 69.75 91.6719 67.6718 89.125 67.6718V67.6406ZM81.5469 63.3593C82.3594 63.5937 83.0156 64.2031 83.3125 64.9843L84.3281 67.6406H68.0156V67.0156C68.0156 66.4218 67.8437 65.8593 67.6719 65.3125L72.7812 61.9062C73.5156 61.4218 74.4219 61.2812 75.2812 61.5156L81.5469 63.3437V63.3593ZM35.125 67.6406V67.0156C35.125 65.5937 36.2812 64.4375 37.7031 64.4375H62.2969C63.7187 64.4375 64.875 65.5937 64.875 67.0156V67.6406H35.125ZM39.1719 25.7344C39.1719 25.0469 39.7187 24.5 40.4062 24.5H59.6094C60.2812 24.5 60.8437 25.0469 60.8437 25.7344C60.8437 26.4219 60.2969 26.9687 59.6094 26.9687H40.4062C39.7187 26.9687 39.1719 26.4219 39.1719 25.7344ZM51.875 21.375H48.1406V18.4062C48.1406 17.375 48.9844 16.5469 50 16.5469C51.0156 16.5469 51.8594 17.3906 51.8594 18.4062V21.375H51.875ZM58.1562 30.0781L60.6094 61.2968H55.9062V56.4687C55.9062 53.2187 53.25 50.5625 50 50.5625C46.75 50.5625 44.0937 53.2187 44.0937 56.4687V61.2968H39.3906L41.8437 30.0781H58.1562ZM47.2187 61.2968V56.4687C47.2187 54.9375 48.4687 53.6875 50 53.6875C51.5312 53.6875 52.7812 54.9375 52.7812 56.4687V61.2968H47.2187ZM69.5 58.2656C69.9062 58.3281 70.2344 58.6093 70.3906 58.9843L70.625 59.5937L65.9531 62.7031C65.3281 62.1718 64.5937 61.8125 63.7812 61.5937L63.4375 57.2656L69.5 58.2656ZM61.4062 14.3281C62.2031 14.3281 62.8437 14.9687 62.8437 15.7656V22.7031C62.8437 22.7031 62.8125 22.7656 62.8125 22.8125C62.2187 22.1562 61.4219 21.7344 60.5156 21.5312V16.7187C60.5156 15.8906 60.3906 15.0781 60.2031 14.3125H61.4062V14.3281ZM50.0156 9.35937C54.0781 9.35937 57.3906 12.6719 57.3906 16.7344V21.3594H55V18.3906C55 15.6406 52.7656 13.4062 50.0156 13.4062C47.2656 13.4062 45.0312 15.6406 45.0312 18.3906V21.3594H42.6406V16.7344C42.6406 12.6719 45.9531 9.35937 50.0156 9.35937ZM37.1875 15.7656C37.1875 14.9687 37.8281 14.3281 38.625 14.3281H39.8125C39.625 15.1094 39.5 15.9062 39.5 16.7344V21.5469C38.5937 21.75 37.7969 22.1562 37.2031 22.8281C37.2031 22.7969 37.1719 22.7656 37.1719 22.7187V15.7812L37.1875 15.7656ZM26.4531 57.8125L31 53.1406C31.625 52.5 32.4844 52.1875 33.3594 52.2344L36.9687 52.4843L36.25 61.5937C33.8281 62.25 32.0156 64.375 32.0156 67V67.625H26.875L25.7187 60.1093C25.5937 59.2812 25.8594 58.4218 26.4531 57.8281V57.8125ZM16.0625 66.7187C15.9375 66.125 16.0312 65.5156 16.3437 65L17.9531 62.2812C18.1562 61.9375 18.5312 61.7187 18.9375 61.7187H22.8125L23.7187 67.625H16.25L16.0625 66.7187ZM10.9062 70.75H89.125C89.9531 70.75 90.625 71.4218 90.625 72.25V75.2031C90.1562 75.0312 89.6562 74.9062 89.125 74.9062H10.875C10.3437 74.9062 9.84375 75.0468 9.375 75.2031V72.25C9.375 71.4218 10.0469 70.75 10.875 70.75H10.9062ZM90.6562 89.1093C90.6562 89.9374 89.9844 90.6093 89.1562 90.6093H10.875C10.0469 90.6093 9.375 89.9374 9.375 89.1093V79.5156C9.375 78.6718 10.0312 78.0156 10.875 78.0156H89.125C89.9531 78.0156 90.625 78.6875 90.625 79.5156V89.1093H90.6562Z" fill="#D15A03"/>
<path d="M20.3594 82.5312C19.5 82.5312 18.7969 83.2344 18.7969 84.0938C18.7969 84.9531 19.5 85.6562 20.3594 85.6562C21.2188 85.6562 21.9219 84.9531 21.9219 84.0938C21.9219 83.2344 21.2188 82.5312 20.3594 82.5312Z" fill="#D15A03"/>
<path d="M34.7344 84.0938C33.875 84.0938 33.1719 84.7969 33.1719 85.6562C33.1719 86.5156 33.875 87.2188 34.7344 87.2188C35.5937 87.2188 36.2969 86.5156 36.2969 85.6562C36.2969 84.7969 35.5937 84.0938 34.7344 84.0938Z" fill="#D15A03"/>
<path d="M49.3594 80.7344C48.5 80.7344 47.7969 81.4375 47.7969 82.2969C47.7969 83.1562 48.5 83.8594 49.3594 83.8594C50.2188 83.8594 50.9219 83.1562 50.9219 82.2969C50.9219 81.4375 50.2188 80.7344 49.3594 80.7344Z" fill="#D15A03"/>
<path d="M62.5781 88.7812C63.4411 88.7812 64.1406 88.0817 64.1406 87.2188C64.1406 86.3558 63.4411 85.6562 62.5781 85.6562C61.7152 85.6562 61.0156 86.3558 61.0156 87.2188C61.0156 88.0817 61.7152 88.7812 62.5781 88.7812Z" fill="#D15A03"/>
<path d="M79.0468 81.5625C78.1875 81.5625 77.4843 82.2656 77.4843 83.125C77.4843 83.9844 78.1875 84.6875 79.0468 84.6875C79.9062 84.6875 80.6093 83.9844 80.6093 83.125C80.6093 82.2656 79.9062 81.5625 79.0468 81.5625Z" fill="#D15A03"/>
<path d="M25.25 19.3438C25.25 20.2031 25.9531 20.9062 26.8125 20.9062H29.3281C30.1875 20.9062 30.8906 20.2031 30.8906 19.3438C30.8906 18.4844 30.1875 17.7812 29.3281 17.7812H26.8125C25.9531 17.7812 25.25 18.4844 25.25 19.3438Z" fill="#D15A03"/>
<path d="M30.9531 12.3125L28.5156 11.6563C27.6719 11.4375 26.8281 11.9219 26.6094 12.7657C26.3906 13.5938 26.875 14.4532 27.7187 14.6719L30.1562 15.3282C30.2969 15.3594 30.4219 15.375 30.5625 15.375C31.25 15.375 31.8906 14.9219 32.0781 14.2188C32.2969 13.3907 31.8125 12.5313 30.9687 12.3125H30.9531Z" fill="#D15A03"/>
<path d="M30.1406 23.3593L27.7031 24.0155C26.875 24.2343 26.375 25.0936 26.5938 25.9218C26.7813 26.6249 27.4063 27.078 28.1094 27.078C28.25 27.078 28.375 27.0624 28.5156 27.0311L30.9531 26.3749C31.7813 26.1561 32.2813 25.2968 32.0625 24.4686C31.8438 23.6405 30.9844 23.1405 30.1563 23.3593H30.1406Z" fill="#D15A03"/>
<path d="M70.6719 17.7812C69.8125 17.7812 69.1094 18.4844 69.1094 19.3438C69.1094 20.2031 69.8125 20.9062 70.6719 20.9062H73.1875C74.0469 20.9062 74.75 20.2031 74.75 19.3438C74.75 18.4844 74.0469 17.7812 73.1875 17.7812H70.6719Z" fill="#D15A03"/>
<path d="M71.4844 11.6719L69.0469 12.3281C68.2187 12.5469 67.7187 13.4063 67.9375 14.2344C68.125 14.9375 68.75 15.3906 69.4375 15.3906C69.5781 15.3906 69.7031 15.375 69.8437 15.3438L72.2812 14.6875C73.1094 14.4688 73.6094 13.6094 73.3906 12.7813C73.1719 11.9531 72.3125 11.4531 71.4844 11.6719Z" fill="#D15A03"/>
<path d="M69.0469 26.3749L71.4844 27.0312C71.625 27.0624 71.75 27.078 71.8906 27.078C72.5781 27.078 73.2188 26.6249 73.3906 25.9218C73.6094 25.0937 73.125 24.2343 72.2813 24.0156L69.8438 23.3593C69.0156 23.1406 68.1563 23.6249 67.9375 24.4687C67.7188 25.3124 68.2031 26.1562 69.0469 26.3749Z" fill="#D15A03"/>
</svg>
