<svg width="50" height="51" viewBox="0 0 50 51" fill="none" xmlns="http://www.w3.org/2000/svg">
<path d="M49.6094 13C49.375 12.8438 49.0625 12.7656 48.8281 12.9219L32.8906 18.625L21.7188 14.5625C22.3438 13 22.6562 11.5938 22.6562 10.4219C22.6562 8.3125 21.875 6.4375 20.3906 4.95312C18.9062 3.46875 16.9531 2.6875 14.9219 2.6875C10.625 2.6875 7.1875 6.125 7.1875 10.4219C7.1875 11.9062 7.73438 13.7031 8.67188 15.8906L0.546875 18.625C0.234375 18.7813 0 19.0938 0 19.4063V47.5312C0 47.8438 0.15625 48.0781 0.390625 48.2344C0.546875 48.3125 0.703125 48.3906 0.859375 48.3906C0.9375 48.3906 1.09375 48.3906 1.17188 48.3125L17.1094 42.6875L32.5781 48.3906C32.7344 48.4688 32.9688 48.4688 33.125 48.3906L49.375 42.6094C49.6875 42.4531 49.9219 42.1406 49.9219 41.8281V13.7031C50 13.3906 49.8438 13.1562 49.6094 13ZM14.9219 4.25C16.5625 4.25 18.0469 4.875 19.1406 6.04688C20.3125 7.14062 20.9375 8.70312 20.9375 10.2656C20.9375 11.3594 20.5469 12.8438 19.7656 14.5625C18.3594 17.6875 16.0156 20.9688 14.9219 22.4531C14.7656 22.2969 14.6875 22.1406 14.5312 21.9062C13.5156 20.5 11.875 18.1563 10.7031 15.7344C9.53125 13.4688 8.98438 11.5937 8.98438 10.1875C8.90625 6.98437 11.6406 4.25 14.9219 4.25ZM48.2812 41.2031L32.8906 46.6719L17.4219 40.9688C17.3438 40.9688 17.1875 40.8906 17.1094 40.8906C17.0312 40.8906 16.875 40.8906 16.7969 40.9688L1.71875 46.3594V20.0312L9.53125 17.2969C9.53125 17.2969 9.53125 17.2969 9.53125 17.375C9.60938 17.4531 9.60938 17.5312 9.6875 17.6094C9.76562 17.7656 9.84375 17.9219 9.92188 18.0781C10 18.1563 10 18.2344 10.0781 18.3125C10.1562 18.4688 10.2344 18.625 10.3125 18.7812C10.3906 18.8594 10.3906 18.9375 10.4688 19.0156C10.5469 19.1719 10.625 19.3281 10.7031 19.4063C10.7812 19.4844 10.7812 19.5625 10.8594 19.6406C10.9375 19.7969 11.0156 19.875 11.0938 20.0312C11.1719 20.1094 11.1719 20.1875 11.25 20.2656C11.3281 20.4219 11.4062 20.5 11.4844 20.6562C11.5625 20.7344 11.5625 20.8125 11.6406 20.8906C11.7188 21.0469 11.7969 21.125 11.875 21.2812C11.9531 21.3594 11.9531 21.4375 12.0312 21.5156C12.1094 21.6719 12.1875 21.75 12.2656 21.9062C12.3438 21.9844 12.3438 22.0625 12.4219 22.0625C12.5 22.2188 12.5781 22.2969 12.6563 22.375C12.6563 22.4531 12.7344 22.4531 12.7344 22.5313C12.8125 22.6875 12.8906 22.7656 12.9688 22.8438L13.0469 22.9219C13.125 23 13.2031 23.1562 13.2812 23.2344L13.3594 23.3125C13.4375 23.3906 13.5156 23.5469 13.5938 23.625C13.6719 23.7031 13.75 23.7812 13.8281 23.8594C13.9844 24.0938 14.1406 24.25 14.1406 24.3281C14.2969 24.5625 14.5312 24.6406 14.8438 24.6406C15.0781 24.6406 15.3125 24.4844 15.5469 24.3281C15.5469 24.3281 15.625 24.25 15.7813 24.0938L15.8594 24.0156C15.9375 23.9375 15.9375 23.9375 16.0156 23.8594L16.0938 23.7812C16.1719 23.7031 16.1719 23.625 16.25 23.5469C16.25 23.4688 16.3281 23.4688 16.3281 23.3906C16.4062 23.3125 16.4844 23.2344 16.4844 23.1562C16.5625 23.0781 16.5625 23 16.6406 22.9219C16.7188 22.8438 16.7969 22.7656 16.875 22.6094C16.9531 22.5312 16.9531 22.4531 17.0312 22.375C17.1094 22.2969 17.1875 22.2188 17.2656 22.0625C17.3438 21.9844 17.4219 21.9062 17.4219 21.8281C17.5 21.75 17.5781 21.5938 17.6562 21.5156C17.7344 21.4375 17.8125 21.2812 17.8906 21.2031C17.9688 21.125 18.0469 20.9688 18.125 20.8906C18.2031 20.8125 18.2812 20.6563 18.3594 20.5781C18.4375 20.4219 18.5156 20.3438 18.5938 20.1875C18.6719 20.1094 18.75 19.9531 18.8281 19.875C18.9062 19.7188 18.9844 19.6406 19.0625 19.4844C19.1406 19.3281 19.2188 19.25 19.2969 19.0938C19.375 18.9375 19.4531 18.8594 19.5312 18.7031C19.6094 18.5469 19.6875 18.4688 19.7656 18.3125C19.8438 18.1562 19.9219 18.0781 20 17.9219C20.0781 17.7656 20.1562 17.6875 20.2344 17.5312C20.3125 17.375 20.3906 17.2969 20.4688 17.1406C20.5469 16.9844 20.625 16.9062 20.7031 16.75C20.7812 16.5938 20.8594 16.4375 20.9375 16.3594C21.0156 16.2031 21.0938 16.125 21.0938 15.9688C21.0938 15.9688 21.0938 15.9688 21.0938 15.8906L32.6562 20.1094C32.8125 20.1875 33.0469 20.1875 33.2031 20.1094L48.2812 14.7188V41.2031Z" fill="black"/>
<path d="M41.0156 33.625C41.1719 33.7031 41.4063 33.7031 41.5625 33.7031C42.0313 33.7031 42.5 33.5469 42.8906 33.3125C43.4375 32.9219 43.8281 32.375 43.9844 31.75C44.1406 31.125 43.9844 30.4219 43.6719 29.875C43.2813 29.3281 42.7344 28.9375 42.1094 28.7813C40.7813 28.4688 39.375 29.3281 39.0625 30.6563C38.9063 31.2813 39.0625 31.9844 39.375 32.5313C39.8438 33.0781 40.3906 33.4688 41.0156 33.625ZM40.7813 30.9688C40.8594 30.5 41.3281 30.2656 41.7188 30.3438C41.9531 30.4219 42.1094 30.5 42.1875 30.7344C42.2656 30.8906 42.3438 31.125 42.2656 31.3594C42.1875 31.5938 42.1094 31.75 41.875 31.8281C41.7188 31.9063 41.4844 31.9844 41.25 31.9063C41.0156 31.8281 40.8594 31.75 40.7813 31.5156C40.7813 31.3594 40.7813 31.2031 40.7813 30.9688Z" fill="black"/>
<path d="M8.59373 31.0469L8.04686 31.3594L7.73436 30.8125C7.49998 30.4219 6.95311 30.2656 6.56248 30.5781C6.17186 30.8125 6.01561 31.3594 6.32811 31.75L6.64061 32.2969L6.09373 32.6094C5.70311 32.8437 5.54686 33.3906 5.85936 33.7812C5.93748 34.0937 6.24998 34.1719 6.48436 34.1719C6.64061 34.1719 6.79686 34.0937 6.95311 34.0156L7.49998 33.7031L7.81248 34.25C7.96873 34.4844 8.28123 34.6406 8.51561 34.6406C8.67186 34.6406 8.82811 34.5625 8.98436 34.4844C9.37498 34.25 9.53123 33.7031 9.21873 33.3125L8.90623 32.7656L9.45311 32.4531C9.84373 32.2187 9.99998 31.6719 9.68748 31.2812C9.53123 30.8906 8.98436 30.8125 8.59373 31.0469Z" fill="black"/>
<path d="M16.6406 33.3906C15.625 33.3906 14.2969 33.2344 13.4375 33C12.9688 32.9219 12.5 33.2344 12.4219 33.7031C12.3438 34.1719 12.6563 34.6406 13.125 34.7188C13.9844 34.875 15.3906 35.1094 16.6406 35.1094C17.1094 35.1094 17.5 34.7188 17.5 34.25C17.5 33.7813 17.1094 33.3906 16.6406 33.3906Z" fill="black"/>
<path d="M23.0469 30.4219C22.5 31.2031 21.875 31.8281 21.0938 32.2969C20.8594 32.4531 20.5469 32.6094 20.2344 32.7656C19.7656 32.9219 19.6094 33.4687 19.7656 33.9375C19.9219 34.25 20.2344 34.4844 20.5469 34.4844C20.625 34.4844 20.7813 34.4844 20.8594 34.4063C21.25 34.25 21.5625 34.0938 21.875 33.8594C22.8125 33.2344 23.5938 32.5312 24.2969 31.5937C24.6094 31.2031 24.5313 30.6562 24.1406 30.4219C23.9063 29.9531 23.3594 30.0312 23.0469 30.4219Z" fill="black"/>
<path d="M29.2969 24.7969C28.4375 24.7969 27.9688 25.0312 27.5 25.1875C26.4063 25.6562 25.4688 26.6719 25.2344 26.9844C24.9219 27.375 25 27.9219 25.3125 28.2344C25.4688 28.3906 25.7031 28.4687 25.8594 28.4687C26.0938 28.4687 26.3281 28.3906 26.4844 28.1563C26.875 27.6875 27.5 27.1406 28.125 26.8281C28.5938 26.6719 28.75 26.5937 29.2969 26.5156C29.7656 26.5156 30.1563 26.125 30.1563 25.6563C30.1563 25.1875 29.7656 24.7969 29.2969 24.7969Z" fill="black"/>
<path d="M32.5 26.125C32.3437 26.5937 32.5 27.0625 32.9688 27.2969C33.8281 27.6875 35.0781 28.3125 36.0156 29.0156C36.1719 29.0937 36.3281 29.1719 36.4844 29.1719C36.7969 29.1719 37.0312 29.0156 37.1875 28.7812C37.4219 28.3906 37.3438 27.8437 36.9531 27.6094C35.8594 26.9062 34.6094 26.2031 33.5938 25.8125C33.2031 25.5 32.7344 25.7344 32.5 26.125Z" fill="black"/>
<path d="M14.9219 12.375C16.4063 12.375 17.5781 11.2031 17.5781 9.71875C17.5781 8.23438 16.4063 7.0625 14.9219 7.0625C13.4375 7.0625 12.2656 8.23438 12.2656 9.71875C12.2656 11.2031 13.5156 12.375 14.9219 12.375ZM14.9219 8.78125C15.3906 8.78125 15.8594 9.17188 15.8594 9.71875C15.8594 10.1875 15.4688 10.6563 14.9219 10.6563C14.4531 10.6563 13.9844 10.2656 13.9844 9.71875C14.0625 9.25 14.4531 8.78125 14.9219 8.78125Z" fill="black"/>
</svg>
