<svg width="200" height="200" viewBox="0 0 200 200" fill="none" xmlns="http://www.w3.org/2000/svg">
<path d="M62.5 75H37.5C35.8424 75 34.2527 74.3415 33.0806 73.1694C31.9085 71.9973 31.25 70.4076 31.25 68.75V43.75C31.25 42.0924 31.9085 40.5027 33.0806 39.3306C34.2527 38.1585 35.8424 37.5 37.5 37.5H62.5C64.1576 37.5 65.7473 38.1585 66.9194 39.3306C68.0915 40.5027 68.75 42.0924 68.75 43.75V68.75C68.75 70.4076 68.0915 71.9973 66.9194 73.1694C65.7473 74.3415 64.1576 75 62.5 75ZM43.75 62.5H56.25V50H43.75V62.5Z" fill="#61C93A"/>
<path d="M37.5 52.9375V68.75H62.5V52.9375C61.2112 55.0457 59.3561 56.7494 57.146 57.8545C54.9359 58.9595 52.4598 59.4214 50 59.1875C47.5402 59.4214 45.0641 58.9595 42.854 57.8545C40.6439 56.7494 38.7888 55.0457 37.5 52.9375Z" fill="#61C93A"/>
<path d="M131.25 96.6875V112.5H156.25V96.6875C154.961 98.7957 153.106 100.499 150.896 101.604C148.686 102.71 146.21 103.171 143.75 102.937C141.29 103.171 138.814 102.71 136.604 101.604C134.394 100.499 132.539 98.7957 131.25 96.6875Z" fill="#61C93A"/>
<path d="M37.5 140.438V156.25H62.5V140.438C61.2112 142.546 59.3561 144.249 57.146 145.354C54.9359 146.46 52.4598 146.921 50 146.688C47.5402 146.921 45.0641 146.46 42.854 145.354C40.6439 144.249 38.7888 142.546 37.5 140.438Z" fill="#61C93A"/>
<path d="M181.25 62.5H62.5C60.8424 62.5 59.2527 61.8415 58.0806 60.6694C56.9085 59.4973 56.25 57.9076 56.25 56.25C56.25 54.5924 56.9085 53.0027 58.0806 51.8306C59.2527 50.6585 60.8424 50 62.5 50H181.25C182.908 50 184.497 50.6585 185.669 51.8306C186.842 53.0027 187.5 54.5924 187.5 56.25C187.5 57.9076 186.842 59.4973 185.669 60.6694C184.497 61.8415 182.908 62.5 181.25 62.5Z" fill="#61C93A"/>
<path d="M37.5 62.5H18.75C17.0924 62.5 15.5027 61.8415 14.3306 60.6694C13.1585 59.4973 12.5 57.9076 12.5 56.25C12.5 54.5924 13.1585 53.0027 14.3306 51.8306C15.5027 50.6585 17.0924 50 18.75 50H37.5C39.1576 50 40.7473 50.6585 41.9194 51.8306C43.0915 53.0027 43.75 54.5924 43.75 56.25C43.75 57.9076 43.0915 59.4973 41.9194 60.6694C40.7473 61.8415 39.1576 62.5 37.5 62.5Z" fill="#61C93A"/>
<path d="M62.5 162.5H37.5C35.8424 162.5 34.2527 161.842 33.0806 160.669C31.9085 159.497 31.25 157.908 31.25 156.25V131.25C31.25 129.592 31.9085 128.003 33.0806 126.831C34.2527 125.658 35.8424 125 37.5 125H62.5C64.1576 125 65.7473 125.658 66.9194 126.831C68.0915 128.003 68.75 129.592 68.75 131.25V156.25C68.75 157.908 68.0915 159.497 66.9194 160.669C65.7473 161.842 64.1576 162.5 62.5 162.5ZM43.75 150H56.25V137.5H43.75V150Z" fill="#61C93A"/>
<path d="M37.5 150H18.75C17.0924 150 15.5027 149.342 14.3306 148.169C13.1585 146.997 12.5 145.408 12.5 143.75C12.5 142.092 13.1585 140.503 14.3306 139.331C15.5027 138.158 17.0924 137.5 18.75 137.5H37.5C39.1576 137.5 40.7473 138.158 41.9194 139.331C43.0915 140.503 43.75 142.092 43.75 143.75C43.75 145.408 43.0915 146.997 41.9194 148.169C40.7473 149.342 39.1576 150 37.5 150Z" fill="#61C93A"/>
<path d="M181.25 150H62.5C60.8424 150 59.2527 149.342 58.0806 148.169C56.9085 146.997 56.25 145.408 56.25 143.75C56.25 142.092 56.9085 140.503 58.0806 139.331C59.2527 138.158 60.8424 137.5 62.5 137.5H181.25C182.908 137.5 184.497 138.158 185.669 139.331C186.842 140.503 187.5 142.092 187.5 143.75C187.5 145.408 186.842 146.997 185.669 148.169C184.497 149.342 182.908 150 181.25 150Z" fill="#61C93A"/>
<path d="M156.25 118.75H131.25C129.592 118.75 128.003 118.092 126.831 116.919C125.658 115.747 125 114.158 125 112.5V87.5C125 85.8424 125.658 84.2527 126.831 83.0806C128.003 81.9085 129.592 81.25 131.25 81.25H156.25C157.908 81.25 159.497 81.9085 160.669 83.0806C161.842 84.2527 162.5 85.8424 162.5 87.5V112.5C162.5 114.158 161.842 115.747 160.669 116.919C159.497 118.092 157.908 118.75 156.25 118.75ZM137.5 106.25H150V93.75H137.5V106.25Z" fill="#61C93A"/>
<path d="M131.25 106.25H18.75C17.0924 106.25 15.5027 105.592 14.3306 104.419C13.1585 103.247 12.5 101.658 12.5 100C12.5 98.3424 13.1585 96.7527 14.3306 95.5806C15.5027 94.4085 17.0924 93.75 18.75 93.75H131.25C132.908 93.75 134.497 94.4085 135.669 95.5806C136.842 96.7527 137.5 98.3424 137.5 100C137.5 101.658 136.842 103.247 135.669 104.419C134.497 105.592 132.908 106.25 131.25 106.25Z" fill="#61C93A"/>
<path d="M181.25 106.25H156.25C154.592 106.25 153.003 105.592 151.831 104.419C150.658 103.247 150 101.658 150 100C150 98.3424 150.658 96.7527 151.831 95.5806C153.003 94.4085 154.592 93.75 156.25 93.75H181.25C182.908 93.75 184.497 94.4085 185.669 95.5806C186.842 96.7527 187.5 98.3424 187.5 100C187.5 101.658 186.842 103.247 185.669 104.419C184.497 105.592 182.908 106.25 181.25 106.25Z" fill="#61C93A"/>
</svg>
