<svg width="50" height="51" viewBox="0 0 50 51" fill="none" xmlns="http://www.w3.org/2000/svg">
<path d="M11.875 24.9531C11.875 24.4844 11.4844 24.0938 11.0156 24.0938C6.95313 24.0938 3.67188 27.375 3.67188 31.4375C3.67188 31.9062 4.0625 32.2969 4.53125 32.2969C5 32.2969 5.39063 31.9062 5.39063 31.4375C5.39063 28.3125 7.89063 25.8125 11.0156 25.8125C11.4844 25.8125 11.875 25.4219 11.875 24.9531Z" fill="black"/>
<path d="M16.6406 31.4375C16.6406 34.5625 14.1406 37.0625 11.0156 37.0625C10.5469 37.0625 10.1562 37.4531 10.1562 37.9219C10.1562 38.3906 10.5469 38.7812 11.0156 38.7812C15.0781 38.7812 18.3594 35.5 18.3594 31.4375C18.3594 30.9687 17.9687 30.5781 17.5 30.5781C17.0312 30.5781 16.6406 30.8906 16.6406 31.4375Z" fill="black"/>
<path d="M47.8125 24.875L37.9688 10.5L37.8906 10.4219C36.7969 9.25 35.3125 8.625 33.75 8.625C30.625 8.625 28.0469 11.2031 28.0469 14.3281C28.0469 15.1094 27.8125 17.9219 26.4844 17.9219H23.5938C22.3438 17.9219 22.0312 15.1094 22.0312 14.3281C22.0312 11.2031 19.4531 8.625 16.3281 8.625C14.7656 8.625 13.2031 9.25 12.1875 10.4219L12.1094 10.5L2.1875 24.7969C2.1875 24.7969 2.1875 24.875 2.10938 24.875C0.78125 26.75 0 29.0156 0 31.4375C0 37.5313 4.92188 42.4531 11.0156 42.4531C17.1094 42.4531 22.0312 37.5313 22.0312 31.4375C22.0312 25.9688 23.5156 24.875 23.75 24.7188H26.3281C26.6406 24.9531 28.0469 26.125 28.0469 31.4375C28.0469 37.5313 32.9688 42.4531 39.0625 42.4531C45.1562 42.4531 50 37.4531 50 31.4375C50 29.0156 49.2969 26.8281 47.8125 24.875ZM11.0156 40.6563C5.9375 40.6563 1.71875 36.5156 1.71875 31.3594C1.71875 29.3281 2.34375 27.4531 3.51562 25.8906L3.59375 25.8125C5.39062 23.4688 8.04688 22.0625 11.0156 22.0625C16.0938 22.0625 20.3125 26.2031 20.3125 31.3594C20.3125 36.5156 16.0938 40.6563 11.0156 40.6563ZM20.7812 26.4375C20.7812 26.3594 20.7031 26.2813 20.7031 26.2813C20.625 26.2031 20.625 26.125 20.5469 26.0469C20.3906 25.8125 20.3125 25.5781 20.1562 25.3438C20.1562 25.2656 20.0781 25.2656 20.0781 25.1875C19.9219 24.9531 19.6875 24.7188 19.5312 24.4063C19.4531 24.3281 19.4531 24.3281 19.375 24.25C19.2188 24.0938 19.0625 23.8594 18.9062 23.7031C18.8281 23.625 18.8281 23.5469 18.75 23.5469C18.5156 23.3125 18.2812 23.1563 18.0469 22.9219L17.9688 22.8438C17.7344 22.6875 17.5781 22.5313 17.3438 22.375C17.2656 22.2969 17.1875 22.2969 17.1094 22.2188C16.875 22.0625 16.6406 21.9063 16.4062 21.75L16.3281 21.6719C16.0156 21.5156 15.7812 21.3594 15.4687 21.2813C15.3906 21.2813 15.3125 21.2031 15.2344 21.2031C15 21.125 14.7656 21.0469 14.5312 20.9688C14.4531 20.9688 14.375 20.8906 14.2969 20.8906C13.9844 20.8125 13.6719 20.7344 13.3594 20.6563C13.2812 20.6563 13.2031 20.6563 13.2031 20.6563C12.9688 20.5781 12.6562 20.5781 12.4219 20.5C12.3438 20.5 12.2656 20.5 12.1875 20.5C11.875 20.5 11.4844 20.4219 11.1719 20.4219C10.7812 20.4219 10.3906 20.4219 9.92188 20.5C9.76562 20.5 9.6875 20.5781 9.53125 20.5781C9.29688 20.5781 8.98438 20.6563 8.75 20.7344C8.59375 20.7344 8.4375 20.8125 8.28125 20.8125C8.04688 20.8906 7.8125 20.9688 7.57812 21.0469C7.42188 21.125 7.26563 21.125 7.10938 21.2031C7.03125 21.2031 6.95312 21.2813 6.875 21.2813L13.5156 11.5938C14.2969 10.8125 15.3125 10.3438 16.4062 10.3438C18.5938 10.3438 20.3906 12.1406 20.3906 14.3281C20.3906 16.0469 20.9375 18.8594 22.8125 19.4844V23.3125C22.1094 23.7031 21.3281 24.5625 20.7812 26.4375ZM24.375 19.5625H25.5469V22.9219H24.375V19.5625ZM29.2188 26.4375C28.6719 24.5625 27.8906 23.625 27.3438 23.2344V19.4063C29.2188 18.7813 29.7656 15.9688 29.7656 14.25C29.7656 12.0625 31.5625 10.2656 33.75 10.2656C34.8438 10.2656 35.8594 10.7344 36.6406 11.5156L43.2812 21.2031C43.2031 21.2031 43.125 21.125 42.9688 21.125C42.8125 21.0469 42.6562 21.0469 42.5 20.9688C42.2656 20.8906 42.0312 20.8125 41.7969 20.7344C41.6406 20.7344 41.4844 20.6563 41.3281 20.6563C41.0938 20.5781 40.7812 20.5781 40.5469 20.5C40.3906 20.5 40.3125 20.4219 40.1562 20.4219C39.7656 20.3438 39.375 20.3438 38.9062 20.3438C38.5938 20.3438 38.2031 20.3438 37.8906 20.4219C37.8125 20.4219 37.7344 20.4219 37.6562 20.4219C37.4219 20.4219 37.1094 20.5 36.875 20.5781C36.7969 20.5781 36.7188 20.5781 36.7188 20.5781C36.4062 20.6563 36.0938 20.7344 35.7812 20.8125C35.7031 20.8125 35.625 20.8906 35.5469 20.8906C35.3125 20.9688 35.0781 21.0469 34.8438 21.125C34.7656 21.125 34.6875 21.2031 34.6094 21.2031C34.2969 21.3594 34.0625 21.4375 33.75 21.5938L33.6719 21.6719C33.4375 21.8281 33.2031 21.9844 32.9688 22.1406C32.8906 22.2188 32.8125 22.2188 32.7344 22.2969C32.5 22.4531 32.2656 22.6094 32.1094 22.7656L32.0312 22.8438C31.7969 23.0781 31.5625 23.2344 31.3281 23.4688C31.25 23.5469 31.25 23.625 31.1719 23.625C31.0156 23.7813 30.8594 24.0156 30.7031 24.1719C30.625 24.25 30.625 24.25 30.5469 24.3281C30.3125 24.5625 30.1563 24.7969 30 25.1094C30 25.1875 29.9219 25.1875 29.9219 25.2656C29.7656 25.5 29.6094 25.7344 29.5312 25.9688C29.4531 26.0469 29.4531 26.125 29.375 26.2031C29.2969 26.3594 29.2188 26.3594 29.2188 26.4375ZM38.9844 40.6563C33.9062 40.6563 29.6875 36.5156 29.6875 31.3594C29.6875 26.2031 33.8281 22.0625 38.9844 22.0625C41.9531 22.0625 44.6094 23.3906 46.4062 25.8125C47.5781 27.4531 48.2031 29.3281 48.2031 31.2813C48.2812 36.5156 44.1406 40.6563 38.9844 40.6563Z" fill="black"/>
<path d="M38.9844 24.0938C38.5156 24.0938 38.125 24.4844 38.125 24.9531C38.125 25.4219 38.5156 25.8125 38.9844 25.8125C42.1094 25.8125 44.6094 28.3125 44.6094 31.4375C44.6094 31.9062 45 32.2969 45.4688 32.2969C45.9375 32.2969 46.3281 31.9062 46.3281 31.4375C46.3281 27.375 43.0469 24.0938 38.9844 24.0938Z" fill="black"/>
<path d="M38.9844 36.9844C35.8594 36.9844 33.3594 34.4844 33.3594 31.3594C33.3594 30.8906 32.9687 30.5 32.5 30.5C32.0312 30.5 31.6406 30.8906 31.6406 31.3594C31.6406 35.4219 34.9219 38.7031 38.9844 38.7031C39.4531 38.7031 39.8438 38.3125 39.8438 37.8437C39.8438 37.375 39.4531 36.9844 38.9844 36.9844Z" fill="black"/>
</svg>
