<svg width="100" height="100" viewBox="0 0 100 100" fill="none" xmlns="http://www.w3.org/2000/svg">
<path d="M50 18.75C28.8281 18.75 6.25 25.3125 6.25 37.5V68.75C6.25 80.9375 28.8281 87.5 50 87.5C71.1719 87.5 93.75 80.9375 93.75 68.75V37.5C93.75 25.3125 71.1719 18.75 50 18.75ZM50 25C73.2031 25 87.5 32.2656 87.5 37.5C87.5 40.7031 82.2656 44.375 74.0625 46.7969L71.875 47.5V52.3438C68.9844 51.6406 65.8594 51.0938 62.5 50.7031C62.5 50.4688 62.5 50.2344 62.5 50C62.5 43.125 56.875 37.5 50 37.5C43.125 37.5 37.5 43.125 37.5 50C37.5 50.2344 37.5 50.4688 37.5 50.7031C34.1406 51.0938 31.0156 51.6406 28.125 52.3438V47.5L25.9375 46.7969C17.7344 44.375 12.5 40.7031 12.5 37.5C12.5 32.2656 26.7969 25 50 25ZM87.5 47.5V58.6719C85 56.875 81.875 55.3906 78.125 54.0625V52.0312C81.875 50.7812 85.0781 49.2969 87.5 47.5ZM43.75 50C43.75 46.5625 46.5625 43.75 50 43.75C53.4375 43.75 56.25 46.5625 56.25 50C56.25 53.4375 53.4375 56.25 50 56.25C46.5625 56.25 43.75 53.4375 43.75 50ZM21.875 54.1406C18.125 55.3906 15 56.9531 12.5 58.75V47.5C14.9219 49.2188 18.125 50.7812 21.875 52.0312V54.1406ZM12.5 68.75C12.5 66.1719 15.8594 63.2031 21.875 60.8594V76.7187C15.8594 74.2969 12.5 71.25 12.5 68.75ZM28.125 78.75V58.8281C31.4844 57.9688 35.3125 57.2656 39.5312 56.7969C39.9219 57.4219 40.3906 58.0469 40.9375 58.5938C35.1563 61.7969 31.25 67.9688 31.25 75H37.5C37.5 68.125 43.125 62.5 50 62.5C56.875 62.5 62.5 68.125 62.5 75H68.75C68.75 67.9688 64.8438 61.7969 59.0625 58.5938C59.6094 58.0469 60.0781 57.4219 60.4688 56.7969C64.6875 57.2656 68.5156 57.9688 71.875 58.8281V78.75C66.0156 80.3125 58.5938 81.25 50 81.25C41.4062 81.25 33.9844 80.2344 28.125 78.75ZM78.125 76.7187V60.8594C84.1406 63.2812 87.5 66.25 87.5 68.75C87.5 71.25 84.1406 74.2969 78.125 76.7187Z" fill="#D15A03"/>
<path d="M34.375 40.625C36.1009 40.625 37.5 39.2259 37.5 37.5C37.5 35.7741 36.1009 34.375 34.375 34.375C32.6491 34.375 31.25 35.7741 31.25 37.5C31.25 39.2259 32.6491 40.625 34.375 40.625Z" fill="#D15A03"/>
</svg>
