<svg width="101" height="100" viewBox="0 0 101 100" fill="none" xmlns="http://www.w3.org/2000/svg">
<g clip-path="url(#clip0_159_368)">
<path d="M25.5 62.5C32.4036 62.5 38 56.9036 38 50C38 43.0964 32.4036 37.5 25.5 37.5C18.5964 37.5 13 43.0964 13 50C13 56.9036 18.5964 62.5 25.5 62.5Z" stroke="#D15A03" stroke-width="8" stroke-linecap="round" stroke-linejoin="round"/>
<path d="M69.25 90.625C76.1536 90.625 81.75 85.0286 81.75 78.125C81.75 71.2214 76.1536 65.625 69.25 65.625C62.3464 65.625 56.75 71.2214 56.75 78.125C56.75 85.0286 62.3464 90.625 69.25 90.625Z" stroke="#D15A03" stroke-width="8" stroke-linecap="round" stroke-linejoin="round"/>
<path d="M69.25 34.375C76.1536 34.375 81.75 28.7786 81.75 21.875C81.75 14.9714 76.1536 9.375 69.25 9.375C62.3464 9.375 56.75 14.9714 56.75 21.875C56.75 28.7786 62.3464 34.375 69.25 34.375Z" stroke="#D15A03" stroke-width="8" stroke-linecap="round" stroke-linejoin="round"/>
<path d="M58.7422 28.6328L36.0078 43.2422" stroke="#D15A03" stroke-width="8" stroke-linecap="round" stroke-linejoin="round"/>
<path d="M36.0078 56.7578L58.7422 71.3672" stroke="#D15A03" stroke-width="8" stroke-linecap="round" stroke-linejoin="round"/>
</g>
<defs>
<clipPath id="clip0_159_368">
<rect width="100" height="100" fill="white" transform="translate(0.5)"/>
</clipPath>
</defs>
</svg>
