<svg width="30" height="30" viewBox="0 0 30 30" fill="none" xmlns="http://www.w3.org/2000/svg">
<g clip-path="url(#clip0_152_59)">
<path d="M24.9383 5.05932C22.4007 2.51354 18.882 0.941406 14.9978 0.941406C11.1212 0.941406 7.60284 2.51354 5.05723 5.05926C2.51163 7.60486 0.939148 11.1154 0.939148 14.9998C0.939148 18.884 2.51157 22.3949 5.05723 24.9404C7.60284 27.4861 11.1212 29.0581 14.9978 29.0581C18.882 29.0581 22.4006 27.4861 24.9383 24.9404C27.4838 22.3949 29.0564 18.884 29.0564 14.9998C29.0564 11.1155 27.4839 7.60492 24.9383 5.05932ZM24.1679 24.1697C21.8167 26.513 18.5787 27.9608 14.9978 27.9608C11.4249 27.9608 8.17876 26.513 5.83583 24.1697C3.49249 21.8191 2.0369 18.5807 2.0369 14.9999C2.0369 11.4191 3.49249 8.18078 5.83583 5.83773C8.17876 3.49469 11.4249 2.03881 14.9978 2.03881C18.5787 2.03881 21.8167 3.49469 24.1679 5.83773C26.5109 8.18078 27.9588 11.4191 27.9588 14.9999C27.9588 18.5807 26.5109 21.8191 24.1679 24.1697Z" fill="white"/>
<path d="M14.9978 10.4541C12.4911 10.4541 10.4518 12.4935 10.4518 15.0001C10.4518 17.5146 12.4911 19.5464 14.9978 19.5464C17.5121 19.5464 19.5438 17.5146 19.5438 15.0001C19.5438 12.4935 17.5121 10.4541 14.9978 10.4541ZM14.9978 18.6043C13.0128 18.6043 11.4014 16.9929 11.4014 15.0001C11.4014 13.0151 13.0127 11.3959 14.9978 11.3959C16.9906 11.3959 18.6019 13.0151 18.6019 15.0001C18.602 16.9929 16.9906 18.6043 14.9978 18.6043Z" fill="white"/>
<path d="M18.7187 7.96875H11.2848C9.45551 7.96875 7.91016 9.44965 7.91016 11.2871V18.7212C7.91016 20.55 9.45551 21.8555 11.2848 21.8555H18.7187C20.5557 21.8555 22.0898 20.55 22.0898 18.7212V11.2871C22.0898 9.44965 20.5557 7.96875 18.7187 7.96875ZM21.2695 18.7212C21.2695 20.0987 20.0966 21.0352 18.7187 21.0352H11.2848C9.90668 21.0352 8.78906 20.0987 8.78906 18.7212V11.2871C8.78906 9.90896 9.90668 8.78906 11.2848 8.78906H18.7187C20.0966 8.78906 21.2695 9.90896 21.2695 11.2871V18.7212Z" fill="white"/>
<path d="M19.4582 9.83887C19.0533 9.83887 18.7265 10.1657 18.7265 10.5704C18.7265 10.9753 19.0533 11.3022 19.4582 11.3022C19.8629 11.3022 20.1901 10.9753 20.1901 10.5704C20.1901 10.1657 19.8629 9.83887 19.4582 9.83887Z" fill="white"/>
</g>
<defs>
<clipPath id="clip0_152_59">
<rect width="30" height="30" fill="white"/>
</clipPath>
</defs>
</svg>
