<svg width="30" height="30" viewBox="0 0 30 30" fill="none" xmlns="http://www.w3.org/2000/svg">
<g clip-path="url(#clip0_152_66)">
<path d="M15.1758 29.7188C7.05471 29.7598 0.392596 23.0098 0.580096 14.7715C0.755878 6.91995 7.26564 0.41604 15.3692 0.50979C23.3731 0.60354 29.9824 7.27151 29.7715 15.5098C29.5723 23.3262 23.127 29.7539 15.1758 29.7188ZM2.35549 15.1289C2.41994 22.4707 8.35549 28.1133 15.375 28.0078C22.1836 27.9024 27.9844 22.3594 27.9903 15.1172C27.9903 7.78127 22.0078 2.1094 14.9707 2.22659C8.15041 2.33791 2.40236 7.8926 2.35549 15.1289Z" fill="white"/>
<path d="M19.1367 22.0079C19.1367 21.879 19.1367 21.7676 19.1367 21.6504C19.1367 20.086 19.1426 18.5274 19.1309 16.9629C19.1309 16.6934 19.1074 16.4122 19.043 16.1543C18.832 15.2872 18.1289 14.8536 17.1152 14.9356C16.3652 14.9942 15.6914 15.6622 15.6387 16.4356C15.6035 16.9043 15.6152 17.3731 15.6094 17.8418C15.6035 19.1133 15.6094 20.379 15.6094 21.6504C15.6094 21.7676 15.6094 21.879 15.6094 22.0137C14.6602 22.0137 13.7344 22.0137 12.791 22.0137C12.791 18.9668 12.791 15.9141 12.791 12.8497C13.7109 12.8497 14.6309 12.8497 15.5859 12.8497C15.5859 13.2071 15.5859 13.5704 15.5859 14.0098C15.6855 13.8926 15.7441 13.834 15.7852 13.7637C17.0508 11.8653 20.4844 12.0704 21.5039 14.3086C21.7852 14.9297 21.9551 15.5801 21.9609 16.2598C21.9785 18.1407 21.9727 20.0274 21.9727 21.9141C21.9727 21.9434 21.9668 21.9727 21.9551 22.0196C21.0293 22.0079 20.0977 22.0079 19.1367 22.0079Z" fill="white"/>
<path d="M10.9863 22.0195C10.043 22.0195 9.12891 22.0195 8.19141 22.0195C8.19141 18.9785 8.19141 15.9492 8.19141 12.9023C9.12305 12.9023 10.043 12.9023 10.9863 12.9023C10.9863 15.9316 10.9863 18.9609 10.9863 22.0195Z" fill="white"/>
<path d="M9.50395 11.0743C8.66606 11.0684 8.08012 10.459 8.08598 9.61528C8.09184 8.77153 8.70122 8.19145 9.57426 8.19731C10.4063 8.20317 11.0098 8.8184 10.9981 9.65629C10.9981 10.4883 10.3711 11.0801 9.50395 11.0743Z" fill="white"/>
</g>
<defs>
<clipPath id="clip0_152_66">
<rect width="30" height="30" fill="white"/>
</clipPath>
</defs>
</svg>
