<svg width="30" height="30" viewBox="0 0 30 30" fill="none" xmlns="http://www.w3.org/2000/svg">
<g clip-path="url(#clip0_152_50)">
<path d="M16.4741 12.7747V11.0836C16.4741 10.3202 16.6586 9.95596 17.8436 9.95596H19.2928V7.13721H16.8495C13.8093 7.13721 12.841 8.48726 12.841 10.8795V12.7747H10.7739V15.6561H12.841V24.175H16.4741V15.6561H18.9932L19.3305 12.7747H16.4741Z" fill="white"/>
<path d="M14.9707 0.0585938C6.70262 0.0585938 0 6.76121 0 15.0293C0 23.2974 6.70262 30 14.9707 30C23.2388 30 29.9414 23.2974 29.9414 15.0293C29.9414 6.76121 23.2388 0.0585938 14.9707 0.0585938ZM24.8922 24.9508C22.2421 27.6009 18.7186 29.0604 14.9707 29.0604C11.2228 29.0604 7.69933 27.6009 5.0492 24.9508C2.39907 22.3007 0.939584 18.7772 0.939584 15.0293C0.939584 11.2814 2.39907 7.75792 5.0492 5.10779C7.69933 2.45766 11.2228 0.998178 14.9707 0.998178C18.7186 0.998178 22.2421 2.45766 24.8922 5.10779C27.5423 7.75792 29.0018 11.2814 29.0018 15.0293C29.0018 18.7772 27.5423 22.3007 24.8922 24.9508Z" fill="white"/>
</g>
<defs>
<clipPath id="clip0_152_50">
<rect width="30" height="30" fill="white"/>
</clipPath>
</defs>
</svg>
