<svg width="50" height="51" viewBox="0 0 50 51" fill="none" xmlns="http://www.w3.org/2000/svg">
<g clip-path="url(#clip0_261_18)">
<path d="M35.4797 15.0205C35.2746 14.8151 35.0163 14.671 34.7338 14.6043C34.4514 14.5376 34.1559 14.5509 33.8806 14.6428L19.8181 19.3303C19.5881 19.4071 19.3791 19.5364 19.2077 19.7078C19.0362 19.8793 18.907 20.0883 18.8301 20.3183L14.1426 34.3808C14.0508 34.6561 14.0374 34.9516 14.1041 35.2341C14.1707 35.5166 14.3147 35.7749 14.52 35.9802C14.7252 36.1854 14.9836 36.3294 15.2661 36.3961C15.5486 36.4627 15.844 36.4494 16.1194 36.3575L30.1819 31.67C30.4119 31.5931 30.6208 31.4638 30.7923 31.2924C30.9637 31.1209 31.093 30.9119 31.1698 30.6819L35.8573 16.6194C35.9491 16.3441 35.9623 16.0487 35.8956 15.7663C35.8289 15.4839 35.6849 15.2256 35.4797 15.0205ZM18.0955 32.4047L21.5476 22.0478L28.4531 28.9531L18.0955 32.4047Z" fill="black"/>
<path d="M25 47.375C20.6735 47.375 16.4442 46.092 12.8469 43.6884C9.24959 41.2847 6.44581 37.8683 4.79014 33.8712C3.13448 29.8741 2.70128 25.4757 3.54533 21.2324C4.38938 16.9891 6.47277 13.0913 9.53205 10.032C12.5913 6.97276 16.4891 4.88937 20.7324 4.04532C24.9757 3.20126 29.3741 3.63446 33.3712 5.29013C37.3683 6.9458 40.7848 9.74957 43.1884 13.3469C45.5921 16.9442 46.875 21.1735 46.875 25.5C46.8685 31.2996 44.5617 36.8598 40.4608 40.9607C36.3598 45.0617 30.7996 47.3685 25 47.375ZM25 6.74999C21.2916 6.74999 17.6665 7.84966 14.5831 9.90994C11.4996 11.9702 9.09641 14.8986 7.67727 18.3247C6.25813 21.7508 5.88681 25.5208 6.61029 29.1579C7.33376 32.7951 9.11952 36.136 11.7418 38.7582C14.364 41.3805 17.7049 43.1662 21.3421 43.8897C24.9792 44.6132 28.7492 44.2419 32.1753 42.8227C35.6014 41.4036 38.5298 39.0004 40.5901 35.9169C42.6503 32.8335 43.75 29.2084 43.75 25.5C43.7443 20.5289 41.7671 15.7631 38.252 12.248C34.7369 8.73292 29.9711 6.75566 25 6.74999Z" fill="black"/>
</g>
<defs>
<clipPath id="clip0_261_18">
<rect width="50" height="50" fill="white" transform="translate(0 0.5)"/>
</clipPath>
</defs>
</svg>
