<svg width="51" height="51" viewBox="0 0 51 51" fill="none" xmlns="http://www.w3.org/2000/svg">
<path d="M18.5166 37.9609L8.70566 27.707C8.11876 27.1406 7.82531 26.3691 7.82531 25.5195C7.82531 24.6699 8.11876 23.9082 8.70566 23.332L18.5166 13.0391C19.6807 11.8184 21.5783 11.8184 22.7423 13.0391C23.9063 14.2598 23.9063 16.2324 22.7423 17.4531L18.0276 22.375L39.2537 22.375C40.9166 22.375 42.2567 23.7715 42.2567 25.5C42.2567 27.2285 40.9166 28.625 39.2635 28.625L18.0373 28.625L22.7521 33.5469C23.9161 34.7676 23.9161 36.7402 22.7521 37.9609C21.5783 39.1816 19.6904 39.1816 18.5166 37.9609Z" fill="#61C93A"/>
</svg>
