<svg width="200" height="200" viewBox="0 0 200 200" fill="none" xmlns="http://www.w3.org/2000/svg">
<path fill-rule="evenodd" clip-rule="evenodd" d="M187.858 190.887C187.528 179.983 173.881 162.155 162.047 160.593C150.357 159.082 141.743 152.783 134.858 146.825C133.175 145.368 131.657 144.664 130.221 144.664C128.516 144.664 127.008 145.641 125.612 147.658C121.893 153.027 116.965 157.331 112.199 161.498C109.718 163.666 107.152 165.906 104.787 168.271C103.893 169.147 103.157 169.553 102.469 169.553C101.814 169.553 101.147 169.172 100.431 168.386C97.9683 165.673 95.0324 163.43 92.1914 161.261C90.4902 159.962 88.7886 158.663 87.1715 157.256C79.1242 150.271 75.7843 142.4 76.9617 133.186C76.9976 132.891 76.9976 132.565 76.9976 132.234C76.9957 131.592 76.9957 130.924 77.3062 130.616C77.4695 130.45 77.7297 130.371 78.1031 130.371C78.2609 130.371 78.4367 130.386 78.6324 130.414C79.2531 130.515 79.8617 130.583 80.4343 130.583C82.4211 130.583 83.6718 129.718 84.257 127.938C85.2386 124.858 83.0652 123.214 81.1468 121.768L80.7719 121.484C72.9363 115.576 66.8972 107.795 62.3101 97.6996C59.2699 91.0109 58.9597 84.3078 61.3898 77.7734C65.2609 67.1852 70.0203 60.123 77.057 54.6941C78.2109 53.793 78.9074 53.2496 79.5375 53.2496C80.1027 53.2496 80.7613 53.6875 81.8886 54.8145C97.2957 70.1035 111.635 79.8035 127.015 85.3402C130.64 86.6504 131.768 88.6012 131.032 92.2996L130.558 94.8285C128.813 104.206 127.162 113.064 119.557 119.705C118.498 120.624 117.884 121.772 117.83 122.949C117.78 124.005 118.2 125.024 119.036 125.889C119.833 126.714 120.755 127.134 121.778 127.134C122.87 127.134 124.04 126.661 125.271 125.727C129.553 122.482 132.679 118.279 134.564 113.236C137.284 106.004 138.9 99.1891 139.503 92.4C139.725 89.7168 140.023 88.0156 142.31 86.9906C144.28 86.1199 145.102 84.3543 144.506 82.2633C144.004 80.5441 142.643 79.5531 140.68 79.4727C130.895 79.0363 122.64 74.916 113.25 68.866C96.6855 58.2004 84.3472 47.7754 77.9707 31.5566C76.9441 28.8918 75.5695 27.5977 73.766 27.5977C73.1754 27.5977 72.5367 27.743 71.8672 28.0301C70.6808 28.543 69.8824 29.3133 69.4965 30.318C69.0172 31.5687 69.1968 33.177 70.0172 34.966C71.2285 37.6098 72.6195 40.2047 74.0929 42.9539C74.784 44.2426 75.4965 45.5707 76.223 46.9652C73.9906 47.5379 71.6789 48.3203 69.6601 49.9086C59.3191 57.9703 53.4363 69.0719 51.6758 83.8527C50.091 97.0348 56.7633 107.711 64.2113 117.284C68.7898 123.177 68.4449 129.861 68.1113 136.321C67.9371 139.674 67.7593 143.145 68.2621 146.501C68.2926 146.666 67.8633 147.104 67.605 147.366C67.3843 147.592 67.1617 147.821 66.9965 148.044C62.4453 154.239 56.9734 160.054 47.8328 160.657C45.5125 160.793 43.2097 161.482 40.9828 162.15C39.3621 162.638 37.6859 163.141 36.0312 163.421C25.4734 165.151 18.4218 171.393 14.4754 182.502C14.2492 183.137 13.9496 183.823 13.639 184.526C12.6609 186.755 11.5539 189.279 12.3777 191.253C12.7996 192.265 13.7004 193.047 15.057 193.564C15.7246 193.823 16.3492 193.948 16.9125 193.948C19.7984 193.948 20.7082 190.815 21.5121 188.051C21.7383 187.275 21.9554 186.521 22.2086 185.883C25.3347 177.943 30.466 173.331 37.8937 171.784C41.7902 170.973 45.6609 170.025 49.5304 169.085C51.8332 168.525 54.1355 167.965 56.4433 167.427C57.2617 167.239 57.9976 167.146 58.6922 167.146C60.6949 167.146 62.3371 167.929 63.8625 169.609C67.6761 173.837 71.6691 178 75.5293 182.035C77.5949 184.189 79.6625 186.346 81.714 188.525C84.3164 191.292 86.2797 192.473 88.2808 192.473C90.2011 192.473 92.2218 191.342 94.8312 188.797L95.5722 188.076C98.4906 185.215 100.098 183.639 101.375 183.639C102.742 183.639 104.112 185.488 106.839 189.178L107.335 189.846C107.981 190.75 108.745 191.77 109.703 192.52C110.709 193.284 111.893 193.726 112.955 193.726C114.032 193.726 114.901 193.291 115.482 192.466C117.715 189.192 120.766 186.561 123.724 184.016C127.399 180.851 131.204 177.577 133.422 173.047C135.924 167.926 139.258 165.538 143.907 165.538C145.54 165.538 147.327 165.833 149.366 166.429C150.5 166.77 151.692 166.97 152.812 167.136C167.202 169.034 175.827 177.275 179.186 192.337C179.696 194.677 180.643 197.355 183.49 197.355C183.774 197.355 184.075 197.33 184.398 197.272C188.002 196.616 187.908 193.03 187.858 190.887ZM133.228 157.636L132.905 158.318C132.704 158.752 132.503 159.19 132.241 159.607C127.432 167.647 121.621 174.502 114.98 179.983C114.073 180.726 113.358 181.075 112.726 181.075C112.062 181.075 111.409 180.687 110.666 179.854C109.112 178.095 108.229 176.803 110.085 174.979C112.619 172.521 115.353 170.18 118.003 167.916C122.08 164.427 126.295 160.823 129.912 156.681C130.35 156.182 130.795 155.927 131.237 155.927C131.983 155.927 132.723 156.681 133.228 157.636ZM86.1812 180.708C85.964 180.435 85.7504 180.17 85.5371 179.944C83.3406 177.664 81.1797 175.335 79.0187 173.005C76.0738 169.832 73.1269 166.655 70.0797 163.587C68.9758 162.485 68.4445 161.477 68.459 160.507C68.4804 159.025 69.7726 157.801 71.0234 156.624L71.673 155.999C72.3371 155.335 72.9203 154.998 73.4066 154.998C74.2754 154.998 74.8945 156.136 75.4418 157.141C75.664 157.55 75.8797 157.941 76.1004 158.25C78.7726 161.95 82.3707 164.66 85.8492 167.28C88.1246 168.993 90.4777 170.766 92.5254 172.787L93.1371 173.35C94.0433 174.172 94.9015 174.947 95.1203 176.027C93.8191 178.332 91.8914 180.281 89.2211 181.986C88.8836 182.208 88.573 182.316 88.2769 182.316C87.4789 182.316 86.8183 181.498 86.1812 180.708Z" fill="#61C93A"/>
<path fill-rule="evenodd" clip-rule="evenodd" d="M38.9691 108.717C39.7086 108.81 40.3906 108.857 41.0148 108.857C45.132 108.857 46.9391 106.75 47.0578 101.812C47.2285 93.8929 47.2176 86.1164 47.0234 78.7007C46.6324 65.4742 48.7445 52.7894 53.4808 39.9234C56.9355 30.4746 63.4789 22.9261 72.9262 17.4882C80.5066 13.1593 88.7082 10.9644 97.3047 10.9644C118.376 10.9644 137.306 24.1515 143.343 43.0351C146.943 54.2105 148.382 64.2624 147.744 73.8101C148.132 82.1679 147.578 89.5707 146.057 96.439C144.467 103.377 142.697 109.538 140.652 115.274C136.983 125.561 130.092 132.216 120.167 135.048L119.629 135.202C118.893 135.418 118.132 135.636 117.457 135.636C116.696 135.636 116.165 135.346 115.791 134.714C112.716 129.578 108.118 128.885 104.022 128.885C102.802 128.885 101.56 128.95 100.316 129.014L99.5734 129.054C93.2902 129.395 89.2719 133.336 88.8269 139.595C88.3406 145.891 92.3855 151.074 98.4461 151.918C99.9121 152.122 101.239 152.223 102.499 152.223C107.432 152.223 111.255 150.629 114.187 147.348C116.265 145.069 119.091 144.125 121.585 143.5C135.777 139.846 145.027 130.625 149.854 115.31C150.96 111.828 152.496 110.6 155.938 110.45C164.219 110.041 169.337 105.877 171.164 98.0667C173.12 89.6874 172.546 81.2093 169.456 72.8679C167.887 68.6414 165.443 66.33 162.388 66.1828C156.94 65.8507 156.416 62.396 155.805 58.3957L155.719 57.8195C153.831 45.3285 150.608 35.7917 145.561 27.8054C137.819 15.4476 119.406 2.14526 97.2793 2.14526C91.7715 2.14526 86.3605 3.01206 81.1988 4.72261C64.4832 10.2824 53.9609 18.6632 48.0855 31.1003C43.3152 41.1992 40.3594 50.5707 39.0476 59.7503C38.5812 62.9898 37.4055 64.1867 34.3941 64.4882C29.0316 64.996 25.575 68.4578 24.6598 74.2367C23.9457 78.9964 23.2008 84.6296 23.093 90.3347C22.8601 102.92 26.5699 107.213 38.9691 108.717ZM35.7187 73.4574L35.9269 73.7945C37.5168 73.9253 37.9047 75.0453 38.0141 76.8023L38.1883 80.3933C38.4359 85.5171 38.6836 90.6554 38.8453 95.7664L38.8723 96.4054C38.9637 98.2019 38.8937 99.3093 37.1726 99.5156C36.9465 99.5445 36.7254 99.5585 36.5105 99.5585C34.7121 99.5585 33.3269 98.5285 32.6125 96.6636C31.8715 94.639 31.9289 92.5949 31.9918 90.4289C32.0187 89.4976 32.0437 88.5644 32.0043 87.6417C31.8965 83.4242 32.2844 79.7203 33.1887 76.3136C33.6515 74.5656 34.4254 73.7867 35.6957 73.7867V73.4601C35.7047 73.4609 35.7098 73.4574 35.7187 73.4574ZM159.093 74.9035C160.303 74.9035 161.211 75.6808 161.792 77.2168C163.185 80.7488 163.932 84.6664 163.795 87.7136C163.727 94.3378 163.25 99.2105 157.671 101.599C156.724 101.998 156.006 102.189 155.468 102.189C155.066 102.189 154.771 102.08 154.57 101.852C154.186 101.412 154.078 100.497 154.254 99.1296C154.541 96.9617 154.918 94.8046 155.291 92.6453C156.113 87.8894 156.968 82.9722 156.853 78.0062C156.817 76.2902 157.125 75.1093 158.748 74.9226C158.871 74.9093 158.982 74.9035 159.093 74.9035Z" fill="#61C93A"/>
</svg>
