<svg width="201" height="201" viewBox="0 0 201 201" fill="none" xmlns="http://www.w3.org/2000/svg">
<g clip-path="url(#clip0_128_84)">
<path d="M157.509 118.075C156.966 115.683 155.641 113.427 153.555 111.602C151.452 109.789 148.89 108.695 146.232 108.295L103.492 100.024L115.856 108.229L96.335 169.424L85.342 123.967L74.346 169.424L54.83 108.23L67.192 100.025L24.449 108.296C21.793 108.695 19.228 109.79 17.128 111.603C15.04 113.427 13.715 115.684 13.172 118.076L0.5 173.735L24.401 182.033C32.343 190.28 54.555 196.349 81.198 196.926H85.341H89.481C116.127 196.35 138.339 190.28 146.277 182.033L170.182 173.735L157.509 118.075Z" fill="#61C93A"/>
<path d="M85.341 106.235L75.487 109.765L85.341 123.969L95.193 109.765L85.341 106.235Z" fill="#61C93A"/>
<path d="M121.918 51.425C121.918 26.163 111.524 6.36499 85.341 6.36499C59.155 6.36499 48.762 26.163 48.762 51.425C46.024 52.855 44.227 56.207 46.914 63.392C48.272 67.001 50.664 70.024 52.691 71.606C60.152 90.184 74.828 104.527 85.341 104.527C95.849 104.527 110.527 90.183 117.987 71.606C120.018 70.024 122.407 67.002 123.763 63.392C126.456 56.207 124.658 52.854 121.918 51.425Z" fill="#61C93A"/>
<path d="M147.849 41.4849H128.425C128.55 42.5889 128.656 43.7069 128.74 44.8499H147.848L147.849 41.4849Z" fill="#61C93A"/>
<path d="M187.126 29.885H126.113C126.441 30.98 126.727 32.109 126.999 33.252H187.126V29.885Z" fill="#61C93A"/>
<path d="M198.201 6.37497C196.667 4.84297 194.656 4.07397 192.645 4.07397H106.191C110.026 6.08897 113.426 8.71997 116.35 11.93H192.645V66.92H171.62L155.705 82.837V66.92H129.946C128.709 69.821 126.942 72.565 124.905 74.778H147.848V96.384C147.848 97.262 148.369 98.098 149.232 98.457C150.097 98.816 151.056 98.595 151.679 97.97L174.874 74.777H192.645C194.656 74.777 196.666 74.008 198.201 72.474C199.735 70.94 200.5 68.93 200.5 66.919V11.93C200.5 9.91897 199.735 7.91097 198.201 6.37497Z" fill="#61C93A"/>
<path d="M187.126 18.29H121.063C121.715 19.371 122.332 20.491 122.907 21.657H187.126V18.29Z" fill="#61C93A"/>
</g>
<defs>
<clipPath id="clip0_128_84">
<rect width="200" height="200" fill="white" transform="translate(0.5 0.5)"/>
</clipPath>
</defs>
</svg>
