<svg width="51" height="51" viewBox="0 0 51 51" fill="none" xmlns="http://www.w3.org/2000/svg">
<path d="M31.6473 13.0391L41.4583 23.293C42.0452 23.8594 42.3386 24.6309 42.3386 25.4805C42.3386 26.3301 42.0452 27.0918 41.4583 27.668L31.6473 37.9609C30.4833 39.1816 28.5857 39.1816 27.4216 37.9609C26.2576 36.7402 26.2576 34.7676 27.4216 33.5469L32.1364 28.625H10.9102C9.24737 28.625 7.90729 27.2285 7.90729 25.5C7.90729 23.7715 9.24737 22.375 10.9005 22.375H32.1266L27.4119 17.4531C26.2479 16.2324 26.2479 14.2598 27.4119 13.0391C28.5857 11.8184 30.4735 11.8184 31.6473 13.0391Z" fill="#125505"/>
</svg>
