<svg width="232" height="178" viewBox="0 0 232 178" fill="none" xmlns="http://www.w3.org/2000/svg">
<path fill-rule="evenodd" clip-rule="evenodd" d="M75.4816 78.2583L3.85438 78.2688C3.31653 89.5813 3.7549 109.813 3.79901 122.637L30.6489 122.91L30.7154 101.652C31.1399 98.6578 34.0305 99.4805 39.7794 99.5418L73.2522 100.337C75.5937 103.778 79.6234 108.26 82.4876 111.451C84.9187 114.16 89.6886 121.189 92.162 122.343L92.189 75.377C87.1468 76.2754 87.9326 78.2603 75.4816 78.2583L75.4816 78.2583Z" fill="white"/>
<path fill-rule="evenodd" clip-rule="evenodd" d="M21.9298 35.205C19.6206 36.4119 14.7794 43.5814 12.9746 45.874C10.9831 48.4047 5.16442 55.0784 4.35156 57.8886C12.7386 57.9723 77.5417 57.4087 83.013 57.9928C87.3143 58.4516 89.4198 59.911 92.2142 60.4219L92.2161 36.0691C85.2082 33.7534 33.4691 35.2234 21.9298 35.205Z" fill="white"/>
<path fill-rule="evenodd" clip-rule="evenodd" d="M7.42552 133.314C-0.602899 147.901 -2.15927 159.969 2.9423 169.445C19.032 191.316 86.2004 163.903 143.276 123.378V123.389H183.685C193.919 122.218 202.926 119.076 210.925 114.314V113.817C223.181 107.163 231.503 94.1805 231.503 79.2536C231.503 67.6564 226.478 57.2358 218.488 50.0426C226.911 36.38 231.08 23.3866 229.154 12.1505C225.3 2.04772 210.724 -2.48826 194.325 1.36208C207.215 2.46696 211.682 7.58562 213.294 14.0675C213.169 85.4922 35.7737 185.142 10.5118 155.585C5.77149 148.129 4.19539 143.64 7.42548 133.314H7.42552ZM180.386 93.7059C188.008 86.7863 195.049 79.7519 201.282 72.7375L203.443 70.5693C213.912 85.5035 200.517 101.845 174.2 99.9128L180.386 93.7059Z" fill="white"/>
<path fill-rule="evenodd" clip-rule="evenodd" d="M104.191 94.235C111.697 93.6984 118.491 89.4776 122.954 83.1664L122.967 112.483L104.191 94.235ZM185.574 58.1143H127.364C128.023 60.5936 128.379 63.2104 128.379 65.9164C128.379 66.5843 128.356 67.2459 128.313 67.9019H150.976L150.927 92.2499L123.381 112.884L123.407 112.91L122.977 113.187L122.968 113.193V113.193L107.17 123.36L102.595 123.372V94.295V92.6833V37.5382C112.41 37.5508 121.23 43.8988 125.559 53.1494L134.615 39.6563C136.593 36.7088 140.622 34.2983 143.57 34.2983H196.157C199.129 34.2983 199.928 36.7295 197.933 39.7012L185.575 58.1146L185.574 58.1143Z" fill="white"/>
<path d="M13.1853 31L11.326 24.34H9.27251V31H5.443V11.908H11.881C13.25 11.908 14.2768 12.1392 14.9613 12.6017C15.6643 13.0642 16.136 13.7302 16.3765 14.5997C16.617 15.4692 16.7373 16.6347 16.7373 18.0962C16.7373 19.4837 16.6078 20.6307 16.3488 21.5372C16.1083 22.4437 15.6088 23.1282 14.8503 23.5907L17.1535 31H13.1853ZM10.9653 21.0377C11.5758 21.0377 12.0105 20.973 12.2695 20.8435C12.5285 20.6955 12.695 20.4365 12.769 20.0665C12.8615 19.678 12.9078 19.0305 12.9078 18.124C12.9078 17.236 12.8615 16.607 12.769 16.237C12.695 15.867 12.5285 15.6172 12.2695 15.4877C12.0105 15.3397 11.5758 15.2657 10.9653 15.2657H9.27251V21.0377H10.9653ZM27.9244 30.7502C27.5359 30.8797 27.0272 30.9907 26.3982 31.0833C25.7877 31.1758 25.2049 31.222 24.6499 31.222C22.9109 31.222 21.6344 30.9352 20.8204 30.3617C20.0064 29.7882 19.4607 28.8355 19.1832 27.5035C18.9242 26.1715 18.7947 24.155 18.7947 21.454C18.7947 18.7715 18.9334 16.7642 19.2109 15.4322C19.4884 14.0817 20.0342 13.1197 20.8482 12.5462C21.6807 11.9727 22.9479 11.686 24.6499 11.686C25.2604 11.686 25.8617 11.7322 26.4537 11.8247C27.0642 11.8987 27.5359 12.0005 27.8689 12.13V15.238C26.7959 15.1085 25.9819 15.0437 25.4269 15.0437C24.4834 15.0437 23.8267 15.1732 23.4567 15.4322C23.1052 15.6727 22.8739 16.2 22.7629 17.014C22.6704 17.828 22.6242 19.308 22.6242 21.454C22.6242 23.6 22.6704 25.08 22.7629 25.894C22.8739 26.708 23.1052 27.2445 23.4567 27.5035C23.8267 27.744 24.4834 27.8642 25.4269 27.8642C26.2779 27.8642 27.1104 27.7995 27.9244 27.67V30.7502ZM35.0061 24.7007V21.4817H40.5839V24.7007H35.0061ZM48.6754 31L54.0311 15.2657H47.4821V11.908H58.0271V14.905L52.7269 31H48.6754ZM63.9628 31.222C63.2783 31.222 62.4921 31.1758 61.6041 31.0833C60.7161 30.9907 59.9298 30.8705 59.2453 30.7225V27.6422C60.6698 27.7902 61.9648 27.8642 63.1303 27.8642C63.8888 27.8642 64.4438 27.818 64.7953 27.7255C65.1653 27.633 65.4336 27.4295 65.6001 27.115C65.7666 26.782 65.8498 26.2547 65.8498 25.5332C65.8498 24.8117 65.7851 24.2752 65.6556 23.9237C65.5261 23.5537 65.3133 23.3132 65.0173 23.2022C64.7398 23.0727 64.3236 23.008 63.7686 23.008H61.1601V19.678H63.7686C64.2866 19.678 64.6751 19.6317 64.9341 19.5392C65.1931 19.4282 65.3781 19.2062 65.4891 18.8732C65.6186 18.5402 65.6833 18.0222 65.6833 17.3192C65.6833 16.6162 65.6093 16.1075 65.4613 15.793C65.3133 15.4785 65.0543 15.275 64.6843 15.1825C64.3328 15.09 63.7593 15.0437 62.9638 15.0437C62.0943 15.0437 60.8641 15.1177 59.2731 15.2657V12.1855C59.9576 12.0375 60.7346 11.9172 61.6041 11.8247C62.4921 11.7322 63.2783 11.686 63.9628 11.686C65.2948 11.686 66.3586 11.8432 67.1541 12.1577C67.9681 12.4722 68.5601 12.9902 68.9301 13.7117C69.3186 14.4147 69.5128 15.386 69.5128 16.6255C69.5128 18.013 69.3001 19.0675 68.8746 19.789C68.4676 20.5105 67.8386 20.9822 66.9876 21.2042V21.3152C67.9126 21.5557 68.5878 22.0182 69.0133 22.7027C69.4573 23.3687 69.6793 24.4602 69.6793 25.9772C69.6793 27.2352 69.4943 28.2435 69.1243 29.002C68.7728 29.7605 68.1808 30.3247 67.3483 30.6947C66.5158 31.0463 65.3873 31.222 63.9628 31.222ZM77.7691 31V27.1982H71.2479V24.2845L75.1051 11.908H79.0734L75.0496 23.8682H77.7969L78.8236 19.012H81.5709V23.8682H83.1804V27.1982H81.5709V31H77.7691ZM89.5282 31.222C88.9177 31.222 88.2054 31.1665 87.3914 31.0555C86.5959 30.9445 85.8744 30.8057 85.2269 30.6392V27.559C86.7254 27.7625 87.9187 27.8642 88.8067 27.8642C89.8242 27.8642 90.5364 27.744 90.9434 27.5035C91.3689 27.263 91.6372 26.8097 91.7482 26.1437C91.8777 25.4592 91.9424 24.2937 91.9424 22.6472H91.7482C91.2302 23.5352 90.2219 23.9792 88.7234 23.9792C87.7244 23.9792 86.9382 23.8497 86.3647 23.5907C85.7912 23.3132 85.3472 22.7675 85.0327 21.9535C84.7367 21.1395 84.5887 19.9277 84.5887 18.3182C84.5887 16.5792 84.7367 15.2472 85.0327 14.3222C85.3287 13.3787 85.8559 12.7035 86.6144 12.2965C87.3914 11.8895 88.5292 11.686 90.0277 11.686C91.1192 11.686 91.9979 11.7692 92.6639 11.9357C93.3299 12.0837 93.8664 12.389 94.2734 12.8515C94.6989 13.314 95.0227 13.9892 95.2447 14.8772C95.4112 15.5802 95.5314 16.459 95.6054 17.5135C95.6794 18.5495 95.7164 19.8537 95.7164 21.4262C95.7164 24.4972 95.4944 26.6895 95.0504 28.003C94.6619 29.187 94.0329 30.0195 93.1634 30.5005C92.3124 30.9815 91.1007 31.222 89.5282 31.222ZM90.1109 20.6215C90.6659 20.6215 91.0637 20.566 91.3042 20.455C91.5447 20.344 91.7019 20.122 91.7759 19.789C91.8684 19.4375 91.9147 18.864 91.9147 18.0685C91.9147 17.1065 91.8592 16.4127 91.7482 15.9872C91.6557 15.5617 91.4892 15.2935 91.2487 15.1825C91.0082 15.0715 90.6289 15.016 90.1109 15.016C89.5559 15.016 89.1582 15.0715 88.9177 15.1825C88.6957 15.275 88.5384 15.5062 88.4459 15.8762C88.3534 16.2462 88.3072 16.8845 88.3072 17.791C88.3072 18.716 88.3534 19.3727 88.4459 19.7612C88.5384 20.1312 88.6957 20.3717 88.9177 20.4827C89.1397 20.5752 89.5374 20.6215 90.1109 20.6215ZM103.394 31.222C101.618 31.222 100.35 30.9445 99.5919 30.3895C98.8334 29.8345 98.3524 28.9372 98.1489 27.6977C97.9639 26.4397 97.8714 24.3585 97.8714 21.454C97.8714 18.5495 97.9639 16.4775 98.1489 15.238C98.3524 13.98 98.8334 13.0735 99.5919 12.5185C100.35 11.9635 101.618 11.686 103.394 11.686C105.188 11.686 106.465 11.9635 107.223 12.5185C107.982 13.0735 108.453 13.98 108.638 15.238C108.842 16.4775 108.944 18.5495 108.944 21.454C108.944 24.3585 108.842 26.4397 108.638 27.6977C108.453 28.9372 107.982 29.8345 107.223 30.3895C106.465 30.9445 105.188 31.222 103.394 31.222ZM103.394 27.8642C104.023 27.8642 104.448 27.7625 104.67 27.559C104.892 27.3555 105.031 26.856 105.086 26.0605C105.16 25.2465 105.197 23.711 105.197 21.454C105.197 19.197 105.16 17.6707 105.086 16.8752C105.031 16.0612 104.892 15.5525 104.67 15.349C104.448 15.1455 104.023 15.0437 103.394 15.0437C102.765 15.0437 102.339 15.1455 102.117 15.349C101.895 15.5525 101.756 16.052 101.701 16.8475C101.645 17.6245 101.618 19.16 101.618 21.454C101.618 23.748 101.645 25.2927 101.701 26.0882C101.756 26.8652 101.895 27.3555 102.117 27.559C102.339 27.7625 102.765 27.8642 103.394 27.8642ZM117.118 31V27.1982H110.597V24.2845L114.454 11.908H118.422L114.398 23.8682H117.146L118.172 19.012H120.92V23.8682H122.529V27.1982H120.92V31H117.118ZM126.296 31V16.2925L123.493 17.4302V13.9337L127.267 11.908H130.126V31H126.296Z" fill="white"/>
</svg>
